%TF.GenerationSoftware,KiCad,Pcbnew,7.0.2*%
%TF.CreationDate,2023-04-26T23:17:44+02:00*%
%TF.ProjectId,phoenix-thumb,70686f65-6e69-4782-9d74-68756d622e6b,v1.0.0*%
%TF.SameCoordinates,Original*%
%TF.FileFunction,Copper,L2,Bot*%
%TF.FilePolarity,Positive*%
%FSLAX46Y46*%
G04 Gerber Fmt 4.6, Leading zero omitted, Abs format (unit mm)*
G04 Created by KiCad (PCBNEW 7.0.2) date 2023-04-26 23:17:44*
%MOMM*%
%LPD*%
G01*
G04 APERTURE LIST*
%TA.AperFunction,ComponentPad*%
%ADD10R,1.700000X1.700000*%
%TD*%
%TA.AperFunction,ComponentPad*%
%ADD11O,1.700000X1.700000*%
%TD*%
%TA.AperFunction,SMDPad,CuDef*%
%ADD12R,2.550000X2.500000*%
%TD*%
%TA.AperFunction,ComponentPad*%
%ADD13R,1.800000X1.500000*%
%TD*%
%TA.AperFunction,ViaPad*%
%ADD14C,0.400000*%
%TD*%
%TA.AperFunction,Conductor*%
%ADD15C,0.200000*%
%TD*%
%TA.AperFunction,Conductor*%
%ADD16C,0.250000*%
%TD*%
G04 APERTURE END LIST*
D10*
%TO.P,REF\u002A\u002A,1*%
%TO.N,P3*%
X137580000Y-129920000D03*
D11*
%TO.P,REF\u002A\u002A,2*%
%TO.N,P4*%
X140120000Y-129920000D03*
%TO.P,REF\u002A\u002A,3*%
%TO.N,row5*%
X142660000Y-129920000D03*
%TD*%
D12*
%TO.P,S7,2*%
%TO.N,P4*%
X146252000Y-156440000D03*
%TO.P,S7,1*%
%TO.N,R31*%
X133325000Y-158980000D03*
%TD*%
%TO.P,S2,1*%
%TO.N,R30*%
X133327000Y-139890000D03*
%TO.P,S2,2*%
%TO.N,P3*%
X146254000Y-137350000D03*
%TD*%
D13*
%TO.P,D25,1*%
%TO.N,R31*%
X132630000Y-153170000D03*
%TO.P,D25,2*%
%TO.N,row5*%
X136030000Y-153170000D03*
%TD*%
%TO.P,D25,1*%
%TO.N,R30*%
X132704500Y-150555190D03*
%TO.P,D25,2*%
%TO.N,row5*%
X136104500Y-150555190D03*
%TD*%
D14*
%TO.N,P4*%
X148840000Y-154310000D03*
%TO.N,R31*%
X132140000Y-156180000D03*
%TO.N,P3*%
X149382000Y-137460000D03*
%TO.N,R30*%
X132152000Y-137330000D03*
%TD*%
D15*
%TO.N,P4*%
X141290000Y-131090000D02*
X140120000Y-129920000D01*
X149882000Y-133524149D02*
X147447851Y-131090000D01*
X147447851Y-131090000D02*
X141290000Y-131090000D01*
X149882000Y-153268000D02*
X149882000Y-133524149D01*
X148840000Y-154310000D02*
X149882000Y-153268000D01*
D16*
%TO.N,P3*%
X137764810Y-133625190D02*
X137580000Y-133440380D01*
X137580000Y-133440380D02*
X137580000Y-129920000D01*
X149382000Y-133625190D02*
X137764810Y-133625190D01*
X149382000Y-137460000D02*
X149382000Y-133625190D01*
D15*
%TO.N,P4*%
X146710000Y-156440000D02*
X148840000Y-154310000D01*
X146252000Y-156440000D02*
X146710000Y-156440000D01*
%TO.N,R31*%
X132140000Y-156180000D02*
X133325000Y-157365000D01*
X133325000Y-157365000D02*
X133325000Y-158980000D01*
X132630000Y-155690000D02*
X132140000Y-156180000D01*
X132630000Y-153170000D02*
X132630000Y-155690000D01*
D16*
%TO.N,P3*%
X149382000Y-137460000D02*
X149272000Y-137350000D01*
X149272000Y-137350000D02*
X146254000Y-137350000D01*
%TO.N,R30*%
X132152000Y-138715000D02*
X132152000Y-137330000D01*
X133327000Y-139890000D02*
X133327000Y-147992690D01*
X133327000Y-147992690D02*
X132704500Y-148615190D01*
X132704500Y-148615190D02*
X132704500Y-150555190D01*
X133327000Y-139890000D02*
X132152000Y-138715000D01*
%TD*%
M02*
