%TF.GenerationSoftware,KiCad,Pcbnew,7.0.2*%
%TF.CreationDate,2023-04-26T23:17:44+02:00*%
%TF.ProjectId,phoenix-thumb,70686f65-6e69-4782-9d74-68756d622e6b,v1.0.0*%
%TF.SameCoordinates,Original*%
%TF.FileFunction,Copper,L1,Top*%
%TF.FilePolarity,Positive*%
%FSLAX46Y46*%
G04 Gerber Fmt 4.6, Leading zero omitted, Abs format (unit mm)*
G04 Created by KiCad (PCBNEW 7.0.2) date 2023-04-26 23:17:44*
%MOMM*%
%LPD*%
G01*
G04 APERTURE LIST*
%ADD10C,0.300000*%
%TA.AperFunction,NonConductor*%
%ADD11C,0.300000*%
%TD*%
%TA.AperFunction,NonConductor*%
%ADD12C,0.200000*%
%TD*%
%TA.AperFunction,ComponentPad*%
%ADD13R,1.700000X1.700000*%
%TD*%
%TA.AperFunction,ComponentPad*%
%ADD14O,1.700000X1.700000*%
%TD*%
%TA.AperFunction,SMDPad,CuDef*%
%ADD15R,2.550000X2.500000*%
%TD*%
%TA.AperFunction,ComponentPad*%
%ADD16R,1.800000X1.500000*%
%TD*%
%TA.AperFunction,ViaPad*%
%ADD17C,0.400000*%
%TD*%
%TA.AperFunction,Conductor*%
%ADD18C,0.200000*%
%TD*%
%TA.AperFunction,Conductor*%
%ADD19C,0.250000*%
%TD*%
G04 APERTURE END LIST*
D10*
D11*
X159409273Y-155349041D02*
X160409177Y-155362884D01*
X158832956Y-155698240D02*
X159899338Y-156070180D01*
X159899338Y-156070180D02*
X159912192Y-155141697D01*
X158929096Y-153913686D02*
X158925141Y-154199373D01*
X158925141Y-154199373D02*
X158994585Y-154343205D01*
X158994585Y-154343205D02*
X159065018Y-154415616D01*
X159065018Y-154415616D02*
X159277306Y-154561425D01*
X159277306Y-154561425D02*
X159562004Y-154636802D01*
X159562004Y-154636802D02*
X160133378Y-154644712D01*
X160133378Y-154644712D02*
X160277210Y-154575268D01*
X160277210Y-154575268D02*
X160349621Y-154504835D01*
X160349621Y-154504835D02*
X160423020Y-154362980D01*
X160423020Y-154362980D02*
X160426975Y-154077293D01*
X160426975Y-154077293D02*
X160357531Y-153933461D01*
X160357531Y-153933461D02*
X160287098Y-153861050D01*
X160287098Y-153861050D02*
X160145243Y-153787651D01*
X160145243Y-153787651D02*
X159788134Y-153782707D01*
X159788134Y-153782707D02*
X159644302Y-153852152D01*
X159644302Y-153852152D02*
X159571892Y-153922585D01*
X159571892Y-153922585D02*
X159498492Y-154064439D01*
X159498492Y-154064439D02*
X159494537Y-154350126D01*
X159494537Y-154350126D02*
X159563982Y-154493958D01*
X159563982Y-154493958D02*
X159634415Y-154566369D01*
X159634415Y-154566369D02*
X159776269Y-154639768D01*
X160369396Y-153076401D02*
X160440817Y-153077389D01*
X160440817Y-153077389D02*
X160582672Y-153150789D01*
X160582672Y-153150789D02*
X160653105Y-153223199D01*
X159091715Y-152487229D02*
X159021282Y-152414819D01*
X159021282Y-152414819D02*
X158951837Y-152270986D01*
X158951837Y-152270986D02*
X158956781Y-151913878D01*
X158956781Y-151913878D02*
X159030180Y-151772023D01*
X159030180Y-151772023D02*
X159102591Y-151701590D01*
X159102591Y-151701590D02*
X159246423Y-151632146D01*
X159246423Y-151632146D02*
X159389266Y-151634123D01*
X159389266Y-151634123D02*
X159602543Y-151708511D01*
X159602543Y-151708511D02*
X160447739Y-152577437D01*
X160447739Y-152577437D02*
X160460592Y-151648955D01*
X158967657Y-151128239D02*
X158980511Y-150199757D01*
X158980511Y-150199757D02*
X159544964Y-150707619D01*
X159544964Y-150707619D02*
X159547930Y-150493354D01*
X159547930Y-150493354D02*
X159621329Y-150351499D01*
X159621329Y-150351499D02*
X159693740Y-150281066D01*
X159693740Y-150281066D02*
X159837572Y-150211622D01*
X159837572Y-150211622D02*
X160194680Y-150216565D01*
X160194680Y-150216565D02*
X160336535Y-150289965D01*
X160336535Y-150289965D02*
X160406968Y-150362375D01*
X160406968Y-150362375D02*
X160476412Y-150506207D01*
X160476412Y-150506207D02*
X160470480Y-150934738D01*
X160470480Y-150934738D02*
X160397081Y-151076592D01*
X160397081Y-151076592D02*
X160324670Y-151147025D01*
X159498261Y-148921087D02*
X160498165Y-148934930D01*
X158921943Y-149270286D02*
X159988325Y-149642226D01*
X159988325Y-149642226D02*
X160001179Y-148713743D01*
X159518036Y-147492653D02*
X160517940Y-147506496D01*
X158941718Y-147841852D02*
X160008100Y-148213792D01*
X160008100Y-148213792D02*
X160020954Y-147285309D01*
X160544636Y-145578110D02*
X159544732Y-145564267D01*
X159687575Y-145566245D02*
X159617142Y-145493834D01*
X159617142Y-145493834D02*
X159547698Y-145350002D01*
X159547698Y-145350002D02*
X159550664Y-145135737D01*
X159550664Y-145135737D02*
X159624064Y-144993882D01*
X159624064Y-144993882D02*
X159767896Y-144924438D01*
X159767896Y-144924438D02*
X160553535Y-144935314D01*
X159767896Y-144924438D02*
X159626041Y-144851039D01*
X159626041Y-144851039D02*
X159556597Y-144707206D01*
X159556597Y-144707206D02*
X159559563Y-144492941D01*
X159559563Y-144492941D02*
X159632962Y-144351086D01*
X159632962Y-144351086D02*
X159776795Y-144281642D01*
X159776795Y-144281642D02*
X160562434Y-144292518D01*
X160572321Y-143578301D02*
X159572417Y-143564459D01*
X159715260Y-143566436D02*
X159644827Y-143494026D01*
X159644827Y-143494026D02*
X159575383Y-143350193D01*
X159575383Y-143350193D02*
X159578349Y-143135928D01*
X159578349Y-143135928D02*
X159651749Y-142994074D01*
X159651749Y-142994074D02*
X159795581Y-142924629D01*
X159795581Y-142924629D02*
X160581220Y-142935506D01*
X159795581Y-142924629D02*
X159653726Y-142851230D01*
X159653726Y-142851230D02*
X159584282Y-142707398D01*
X159584282Y-142707398D02*
X159587248Y-142493133D01*
X159587248Y-142493133D02*
X159660647Y-142351278D01*
X159660647Y-142351278D02*
X159804480Y-142281834D01*
X159804480Y-142281834D02*
X160590119Y-142292710D01*
D12*
X148009952Y-125856921D02*
X162507529Y-126057623D01*
X147369952Y-172086921D02*
X161867529Y-172287623D01*
X161921165Y-126049506D02*
X161281165Y-172279506D01*
X161921165Y-126049506D02*
X161281165Y-172279506D01*
X161921165Y-126049506D02*
X162491936Y-127184019D01*
X161921165Y-126049506D02*
X161319207Y-127167784D01*
X161281165Y-172279506D02*
X160710394Y-171144993D01*
X161281165Y-172279506D02*
X161883123Y-171161228D01*
D10*
D11*
X134101430Y-116826785D02*
X134172858Y-116755357D01*
X134172858Y-116755357D02*
X134315716Y-116683928D01*
X134315716Y-116683928D02*
X134672858Y-116683928D01*
X134672858Y-116683928D02*
X134815716Y-116755357D01*
X134815716Y-116755357D02*
X134887144Y-116826785D01*
X134887144Y-116826785D02*
X134958573Y-116969642D01*
X134958573Y-116969642D02*
X134958573Y-117112500D01*
X134958573Y-117112500D02*
X134887144Y-117326785D01*
X134887144Y-117326785D02*
X134030001Y-118183928D01*
X134030001Y-118183928D02*
X134958573Y-118183928D01*
X135530001Y-116826785D02*
X135601429Y-116755357D01*
X135601429Y-116755357D02*
X135744287Y-116683928D01*
X135744287Y-116683928D02*
X136101429Y-116683928D01*
X136101429Y-116683928D02*
X136244287Y-116755357D01*
X136244287Y-116755357D02*
X136315715Y-116826785D01*
X136315715Y-116826785D02*
X136387144Y-116969642D01*
X136387144Y-116969642D02*
X136387144Y-117112500D01*
X136387144Y-117112500D02*
X136315715Y-117326785D01*
X136315715Y-117326785D02*
X135458572Y-118183928D01*
X135458572Y-118183928D02*
X136387144Y-118183928D01*
X137101429Y-118112500D02*
X137101429Y-118183928D01*
X137101429Y-118183928D02*
X137030000Y-118326785D01*
X137030000Y-118326785D02*
X136958572Y-118398214D01*
X138530001Y-118183928D02*
X137672858Y-118183928D01*
X138101429Y-118183928D02*
X138101429Y-116683928D01*
X138101429Y-116683928D02*
X137958572Y-116898214D01*
X137958572Y-116898214D02*
X137815715Y-117041071D01*
X137815715Y-117041071D02*
X137672858Y-117112500D01*
X139815715Y-117183928D02*
X139815715Y-118183928D01*
X139458572Y-116612500D02*
X139101429Y-117683928D01*
X139101429Y-117683928D02*
X140030000Y-117683928D01*
X140887143Y-116683928D02*
X141030000Y-116683928D01*
X141030000Y-116683928D02*
X141172857Y-116755357D01*
X141172857Y-116755357D02*
X141244286Y-116826785D01*
X141244286Y-116826785D02*
X141315714Y-116969642D01*
X141315714Y-116969642D02*
X141387143Y-117255357D01*
X141387143Y-117255357D02*
X141387143Y-117612500D01*
X141387143Y-117612500D02*
X141315714Y-117898214D01*
X141315714Y-117898214D02*
X141244286Y-118041071D01*
X141244286Y-118041071D02*
X141172857Y-118112500D01*
X141172857Y-118112500D02*
X141030000Y-118183928D01*
X141030000Y-118183928D02*
X140887143Y-118183928D01*
X140887143Y-118183928D02*
X140744286Y-118112500D01*
X140744286Y-118112500D02*
X140672857Y-118041071D01*
X140672857Y-118041071D02*
X140601428Y-117898214D01*
X140601428Y-117898214D02*
X140530000Y-117612500D01*
X140530000Y-117612500D02*
X140530000Y-117255357D01*
X140530000Y-117255357D02*
X140601428Y-116969642D01*
X140601428Y-116969642D02*
X140672857Y-116826785D01*
X140672857Y-116826785D02*
X140744286Y-116755357D01*
X140744286Y-116755357D02*
X140887143Y-116683928D01*
X142315714Y-116683928D02*
X142458571Y-116683928D01*
X142458571Y-116683928D02*
X142601428Y-116755357D01*
X142601428Y-116755357D02*
X142672857Y-116826785D01*
X142672857Y-116826785D02*
X142744285Y-116969642D01*
X142744285Y-116969642D02*
X142815714Y-117255357D01*
X142815714Y-117255357D02*
X142815714Y-117612500D01*
X142815714Y-117612500D02*
X142744285Y-117898214D01*
X142744285Y-117898214D02*
X142672857Y-118041071D01*
X142672857Y-118041071D02*
X142601428Y-118112500D01*
X142601428Y-118112500D02*
X142458571Y-118183928D01*
X142458571Y-118183928D02*
X142315714Y-118183928D01*
X142315714Y-118183928D02*
X142172857Y-118112500D01*
X142172857Y-118112500D02*
X142101428Y-118041071D01*
X142101428Y-118041071D02*
X142029999Y-117898214D01*
X142029999Y-117898214D02*
X141958571Y-117612500D01*
X141958571Y-117612500D02*
X141958571Y-117255357D01*
X141958571Y-117255357D02*
X142029999Y-116969642D01*
X142029999Y-116969642D02*
X142101428Y-116826785D01*
X142101428Y-116826785D02*
X142172857Y-116755357D01*
X142172857Y-116755357D02*
X142315714Y-116683928D01*
X144601427Y-118183928D02*
X144601427Y-117183928D01*
X144601427Y-117326785D02*
X144672856Y-117255357D01*
X144672856Y-117255357D02*
X144815713Y-117183928D01*
X144815713Y-117183928D02*
X145029999Y-117183928D01*
X145029999Y-117183928D02*
X145172856Y-117255357D01*
X145172856Y-117255357D02*
X145244285Y-117398214D01*
X145244285Y-117398214D02*
X145244285Y-118183928D01*
X145244285Y-117398214D02*
X145315713Y-117255357D01*
X145315713Y-117255357D02*
X145458570Y-117183928D01*
X145458570Y-117183928D02*
X145672856Y-117183928D01*
X145672856Y-117183928D02*
X145815713Y-117255357D01*
X145815713Y-117255357D02*
X145887142Y-117398214D01*
X145887142Y-117398214D02*
X145887142Y-118183928D01*
X146601427Y-118183928D02*
X146601427Y-117183928D01*
X146601427Y-117326785D02*
X146672856Y-117255357D01*
X146672856Y-117255357D02*
X146815713Y-117183928D01*
X146815713Y-117183928D02*
X147029999Y-117183928D01*
X147029999Y-117183928D02*
X147172856Y-117255357D01*
X147172856Y-117255357D02*
X147244285Y-117398214D01*
X147244285Y-117398214D02*
X147244285Y-118183928D01*
X147244285Y-117398214D02*
X147315713Y-117255357D01*
X147315713Y-117255357D02*
X147458570Y-117183928D01*
X147458570Y-117183928D02*
X147672856Y-117183928D01*
X147672856Y-117183928D02*
X147815713Y-117255357D01*
X147815713Y-117255357D02*
X147887142Y-117398214D01*
X147887142Y-117398214D02*
X147887142Y-118183928D01*
D12*
X129960000Y-127970000D02*
X129960000Y-118703580D01*
X152100000Y-127970000D02*
X152100000Y-118703580D01*
X129960000Y-119290000D02*
X152100000Y-119290000D01*
X129960000Y-119290000D02*
X152100000Y-119290000D01*
X129960000Y-119290000D02*
X131086504Y-118703579D01*
X129960000Y-119290000D02*
X131086504Y-119876421D01*
X152100000Y-119290000D02*
X150973496Y-119876421D01*
X152100000Y-119290000D02*
X150973496Y-118703579D01*
D13*
%TO.P,REF\u002A\u002A,1*%
%TO.N,P3*%
X137580000Y-129920000D03*
D14*
%TO.P,REF\u002A\u002A,2*%
%TO.N,P4*%
X140120000Y-129920000D03*
%TO.P,REF\u002A\u002A,3*%
%TO.N,row5*%
X142660000Y-129920000D03*
%TD*%
D15*
%TO.P,S7,2*%
%TO.N,P4*%
X147495000Y-158980000D03*
%TO.P,S7,1*%
%TO.N,R31*%
X134568000Y-156440000D03*
%TD*%
%TO.P,S2,1*%
%TO.N,R30*%
X134570000Y-137350000D03*
%TO.P,S2,2*%
%TO.N,P3*%
X147497000Y-139890000D03*
%TD*%
D16*
%TO.P,D25,1*%
%TO.N,R31*%
X132630000Y-153170000D03*
%TO.P,D25,2*%
%TO.N,row5*%
X136030000Y-153170000D03*
%TD*%
%TO.P,D25,1*%
%TO.N,R30*%
X132704500Y-150555190D03*
%TO.P,D25,2*%
%TO.N,row5*%
X136104500Y-150555190D03*
%TD*%
D17*
%TO.N,P4*%
X148840000Y-154310000D03*
%TO.N,R31*%
X132140000Y-156180000D03*
%TO.N,P3*%
X149382000Y-137460000D03*
%TO.N,R30*%
X132152000Y-137330000D03*
%TD*%
D18*
%TO.N,row5*%
X142660000Y-129920000D02*
X144839310Y-129920000D01*
X144839310Y-129920000D02*
X150354500Y-135435190D01*
D19*
X150354500Y-135435190D02*
X150354500Y-149855500D01*
X149920000Y-150290000D02*
X150354500Y-149855500D01*
X136369690Y-150290000D02*
X149920000Y-150290000D01*
X136104500Y-150555190D02*
X136369690Y-150290000D01*
D18*
%TO.N,P4*%
X147495000Y-155655000D02*
X148840000Y-154310000D01*
X147495000Y-158980000D02*
X147495000Y-155655000D01*
%TO.N,R31*%
X132400000Y-156440000D02*
X134568000Y-156440000D01*
X132140000Y-156180000D02*
X132400000Y-156440000D01*
%TO.N,row5*%
X136030000Y-150629690D02*
X136104500Y-150555190D01*
X136030000Y-153170000D02*
X136030000Y-150629690D01*
D19*
%TO.N,P3*%
X147497000Y-139345000D02*
X147497000Y-139890000D01*
X149382000Y-137460000D02*
X147497000Y-139345000D01*
%TO.N,row5*%
X136042000Y-150800000D02*
X136286810Y-150555190D01*
%TO.N,R30*%
X134570000Y-137350000D02*
X132172000Y-137350000D01*
X132172000Y-137350000D02*
X132152000Y-137330000D01*
%TD*%
M02*
