%TF.GenerationSoftware,KiCad,Pcbnew,7.0.2*%
%TF.CreationDate,2023-04-26T23:17:44+02:00*%
%TF.ProjectId,phoenix-thumb,70686f65-6e69-4782-9d74-68756d622e6b,v1.0.0*%
%TF.SameCoordinates,Original*%
%TF.FileFunction,Legend,Bot*%
%TF.FilePolarity,Positive*%
%FSLAX46Y46*%
G04 Gerber Fmt 4.6, Leading zero omitted, Abs format (unit mm)*
G04 Created by KiCad (PCBNEW 7.0.2) date 2023-04-26 23:17:44*
%MOMM*%
%LPD*%
G01*
G04 APERTURE LIST*
%ADD10C,0.150000*%
G04 APERTURE END LIST*
D10*
X143400095Y-127283332D02*
X143019142Y-127549999D01*
X143400095Y-127740475D02*
X142600095Y-127740475D01*
X142600095Y-127740475D02*
X142600095Y-127435713D01*
X142600095Y-127435713D02*
X142638190Y-127359523D01*
X142638190Y-127359523D02*
X142676285Y-127321428D01*
X142676285Y-127321428D02*
X142752476Y-127283332D01*
X142752476Y-127283332D02*
X142866761Y-127283332D01*
X142866761Y-127283332D02*
X142942952Y-127321428D01*
X142942952Y-127321428D02*
X142981047Y-127359523D01*
X142981047Y-127359523D02*
X143019142Y-127435713D01*
X143019142Y-127435713D02*
X143019142Y-127740475D01*
X142600095Y-126559523D02*
X142600095Y-126940475D01*
X142600095Y-126940475D02*
X142981047Y-126978571D01*
X142981047Y-126978571D02*
X142942952Y-126940475D01*
X142942952Y-126940475D02*
X142904857Y-126864285D01*
X142904857Y-126864285D02*
X142904857Y-126673809D01*
X142904857Y-126673809D02*
X142942952Y-126597618D01*
X142942952Y-126597618D02*
X142981047Y-126559523D01*
X142981047Y-126559523D02*
X143057238Y-126521428D01*
X143057238Y-126521428D02*
X143247714Y-126521428D01*
X143247714Y-126521428D02*
X143323904Y-126559523D01*
X143323904Y-126559523D02*
X143362000Y-126597618D01*
X143362000Y-126597618D02*
X143400095Y-126673809D01*
X143400095Y-126673809D02*
X143400095Y-126864285D01*
X143400095Y-126864285D02*
X143362000Y-126940475D01*
X143362000Y-126940475D02*
X143323904Y-126978571D01*
X138240095Y-127800475D02*
X137440095Y-127800475D01*
X137440095Y-127800475D02*
X137440095Y-127495713D01*
X137440095Y-127495713D02*
X137478190Y-127419523D01*
X137478190Y-127419523D02*
X137516285Y-127381428D01*
X137516285Y-127381428D02*
X137592476Y-127343332D01*
X137592476Y-127343332D02*
X137706761Y-127343332D01*
X137706761Y-127343332D02*
X137782952Y-127381428D01*
X137782952Y-127381428D02*
X137821047Y-127419523D01*
X137821047Y-127419523D02*
X137859142Y-127495713D01*
X137859142Y-127495713D02*
X137859142Y-127800475D01*
X137440095Y-127076666D02*
X137440095Y-126581428D01*
X137440095Y-126581428D02*
X137744857Y-126848094D01*
X137744857Y-126848094D02*
X137744857Y-126733809D01*
X137744857Y-126733809D02*
X137782952Y-126657618D01*
X137782952Y-126657618D02*
X137821047Y-126619523D01*
X137821047Y-126619523D02*
X137897238Y-126581428D01*
X137897238Y-126581428D02*
X138087714Y-126581428D01*
X138087714Y-126581428D02*
X138163904Y-126619523D01*
X138163904Y-126619523D02*
X138202000Y-126657618D01*
X138202000Y-126657618D02*
X138240095Y-126733809D01*
X138240095Y-126733809D02*
X138240095Y-126962380D01*
X138240095Y-126962380D02*
X138202000Y-127038571D01*
X138202000Y-127038571D02*
X138163904Y-127076666D01*
X140690095Y-127800475D02*
X139890095Y-127800475D01*
X139890095Y-127800475D02*
X139890095Y-127495713D01*
X139890095Y-127495713D02*
X139928190Y-127419523D01*
X139928190Y-127419523D02*
X139966285Y-127381428D01*
X139966285Y-127381428D02*
X140042476Y-127343332D01*
X140042476Y-127343332D02*
X140156761Y-127343332D01*
X140156761Y-127343332D02*
X140232952Y-127381428D01*
X140232952Y-127381428D02*
X140271047Y-127419523D01*
X140271047Y-127419523D02*
X140309142Y-127495713D01*
X140309142Y-127495713D02*
X140309142Y-127800475D01*
X140156761Y-126657618D02*
X140690095Y-126657618D01*
X139852000Y-126848094D02*
X140423428Y-127038571D01*
X140423428Y-127038571D02*
X140423428Y-126543332D01*
%TO.C,D25*%
X133930000Y-153870000D02*
X134830000Y-153170000D01*
X134830000Y-153170000D02*
X133930000Y-152470000D01*
X133930000Y-152470000D02*
X133930000Y-153870000D01*
X134830000Y-152470000D02*
X134830000Y-153870000D01*
X134004500Y-149855190D02*
X134004500Y-151255190D01*
X134904500Y-150555190D02*
X134004500Y-149855190D01*
X134004500Y-151255190D02*
X134904500Y-150555190D01*
X134904500Y-149855190D02*
X134904500Y-151255190D01*
%TD*%
M02*
