%TF.GenerationSoftware,KiCad,Pcbnew,7.0.2*%
%TF.CreationDate,2023-04-26T23:17:44+02:00*%
%TF.ProjectId,phoenix-thumb,70686f65-6e69-4782-9d74-68756d622e6b,v1.0.0*%
%TF.SameCoordinates,Original*%
%TF.FileFunction,Legend,Top*%
%TF.FilePolarity,Positive*%
%FSLAX46Y46*%
G04 Gerber Fmt 4.6, Leading zero omitted, Abs format (unit mm)*
G04 Created by KiCad (PCBNEW 7.0.2) date 2023-04-26 23:17:44*
%MOMM*%
%LPD*%
G01*
G04 APERTURE LIST*
%ADD10C,0.150000*%
%ADD11C,0.120000*%
G04 APERTURE END LIST*
D10*
X140690095Y-127810475D02*
X139890095Y-127810475D01*
X139890095Y-127810475D02*
X139890095Y-127505713D01*
X139890095Y-127505713D02*
X139928190Y-127429523D01*
X139928190Y-127429523D02*
X139966285Y-127391428D01*
X139966285Y-127391428D02*
X140042476Y-127353332D01*
X140042476Y-127353332D02*
X140156761Y-127353332D01*
X140156761Y-127353332D02*
X140232952Y-127391428D01*
X140232952Y-127391428D02*
X140271047Y-127429523D01*
X140271047Y-127429523D02*
X140309142Y-127505713D01*
X140309142Y-127505713D02*
X140309142Y-127810475D01*
X140156761Y-126667618D02*
X140690095Y-126667618D01*
X139852000Y-126858094D02*
X140423428Y-127048571D01*
X140423428Y-127048571D02*
X140423428Y-126553332D01*
X143400095Y-127293332D02*
X143019142Y-127559999D01*
X143400095Y-127750475D02*
X142600095Y-127750475D01*
X142600095Y-127750475D02*
X142600095Y-127445713D01*
X142600095Y-127445713D02*
X142638190Y-127369523D01*
X142638190Y-127369523D02*
X142676285Y-127331428D01*
X142676285Y-127331428D02*
X142752476Y-127293332D01*
X142752476Y-127293332D02*
X142866761Y-127293332D01*
X142866761Y-127293332D02*
X142942952Y-127331428D01*
X142942952Y-127331428D02*
X142981047Y-127369523D01*
X142981047Y-127369523D02*
X143019142Y-127445713D01*
X143019142Y-127445713D02*
X143019142Y-127750475D01*
X142600095Y-126569523D02*
X142600095Y-126950475D01*
X142600095Y-126950475D02*
X142981047Y-126988571D01*
X142981047Y-126988571D02*
X142942952Y-126950475D01*
X142942952Y-126950475D02*
X142904857Y-126874285D01*
X142904857Y-126874285D02*
X142904857Y-126683809D01*
X142904857Y-126683809D02*
X142942952Y-126607618D01*
X142942952Y-126607618D02*
X142981047Y-126569523D01*
X142981047Y-126569523D02*
X143057238Y-126531428D01*
X143057238Y-126531428D02*
X143247714Y-126531428D01*
X143247714Y-126531428D02*
X143323904Y-126569523D01*
X143323904Y-126569523D02*
X143362000Y-126607618D01*
X143362000Y-126607618D02*
X143400095Y-126683809D01*
X143400095Y-126683809D02*
X143400095Y-126874285D01*
X143400095Y-126874285D02*
X143362000Y-126950475D01*
X143362000Y-126950475D02*
X143323904Y-126988571D01*
X138240095Y-127810475D02*
X137440095Y-127810475D01*
X137440095Y-127810475D02*
X137440095Y-127505713D01*
X137440095Y-127505713D02*
X137478190Y-127429523D01*
X137478190Y-127429523D02*
X137516285Y-127391428D01*
X137516285Y-127391428D02*
X137592476Y-127353332D01*
X137592476Y-127353332D02*
X137706761Y-127353332D01*
X137706761Y-127353332D02*
X137782952Y-127391428D01*
X137782952Y-127391428D02*
X137821047Y-127429523D01*
X137821047Y-127429523D02*
X137859142Y-127505713D01*
X137859142Y-127505713D02*
X137859142Y-127810475D01*
X137440095Y-127086666D02*
X137440095Y-126591428D01*
X137440095Y-126591428D02*
X137744857Y-126858094D01*
X137744857Y-126858094D02*
X137744857Y-126743809D01*
X137744857Y-126743809D02*
X137782952Y-126667618D01*
X137782952Y-126667618D02*
X137821047Y-126629523D01*
X137821047Y-126629523D02*
X137897238Y-126591428D01*
X137897238Y-126591428D02*
X138087714Y-126591428D01*
X138087714Y-126591428D02*
X138163904Y-126629523D01*
X138163904Y-126629523D02*
X138202000Y-126667618D01*
X138202000Y-126667618D02*
X138240095Y-126743809D01*
X138240095Y-126743809D02*
X138240095Y-126972380D01*
X138240095Y-126972380D02*
X138202000Y-127048571D01*
X138202000Y-127048571D02*
X138163904Y-127086666D01*
D11*
%TO.C,REF\u002A\u002A*%
X138850000Y-131250000D02*
X138850000Y-128590000D01*
X143990000Y-131250000D02*
X143990000Y-128590000D01*
X138850000Y-131250000D02*
X143990000Y-131250000D01*
X136250000Y-129920000D02*
X136250000Y-128590000D01*
X136250000Y-128590000D02*
X137580000Y-128590000D01*
X138850000Y-128590000D02*
X143990000Y-128590000D01*
D10*
%TO.C,D25*%
X134830000Y-153170000D02*
X133930000Y-152470000D01*
X134830000Y-152470000D02*
X134830000Y-153870000D01*
X133930000Y-152470000D02*
X133930000Y-153870000D01*
X133930000Y-153870000D02*
X134830000Y-153170000D01*
X134004500Y-151255190D02*
X134904500Y-150555190D01*
X134904500Y-150555190D02*
X134004500Y-149855190D01*
X134004500Y-149855190D02*
X134004500Y-151255190D01*
X134904500Y-149855190D02*
X134904500Y-151255190D01*
%TD*%
M02*
