%TF.GenerationSoftware,KiCad,Pcbnew,7.0.2*%
%TF.CreationDate,2023-04-26T23:00:13+02:00*%
%TF.ProjectId,phoenix-no-controller,70686f65-6e69-4782-9d6e-6f2d636f6e74,v1.0.0*%
%TF.SameCoordinates,Original*%
%TF.FileFunction,Paste,Top*%
%TF.FilePolarity,Positive*%
%FSLAX46Y46*%
G04 Gerber Fmt 4.6, Leading zero omitted, Abs format (unit mm)*
G04 Created by KiCad (PCBNEW 7.0.2) date 2023-04-26 23:00:13*
%MOMM*%
%LPD*%
G01*
G04 APERTURE LIST*
%ADD10R,2.550000X2.500000*%
G04 APERTURE END LIST*
D10*
%TO.C,S28*%
X229665500Y-109344810D03*
X242592500Y-111884810D03*
%TD*%
%TO.C,S21*%
X210665500Y-144444810D03*
X223592500Y-146984810D03*
%TD*%
%TO.C,S24*%
X210665500Y-87294810D03*
X223592500Y-89834810D03*
%TD*%
%TO.C,S11*%
X172665500Y-144444810D03*
X185592500Y-146984810D03*
%TD*%
%TO.C,S15*%
X191665500Y-160494810D03*
X204592500Y-163034810D03*
%TD*%
%TO.C,S12*%
X172665500Y-125394810D03*
X185592500Y-127934810D03*
%TD*%
%TO.C,S4*%
X134665500Y-97294810D03*
X147592500Y-99834810D03*
%TD*%
%TO.C,S6*%
X153665500Y-154444810D03*
X166592500Y-156984810D03*
%TD*%
%TO.C,S10*%
X172665500Y-163494810D03*
X185592500Y-166034810D03*
%TD*%
%TO.C,S20*%
X210665500Y-163494810D03*
X223592500Y-166034810D03*
%TD*%
%TO.C,S27*%
X229665500Y-128394810D03*
X242592500Y-130934810D03*
%TD*%
%TO.C,S17*%
X191665500Y-122394810D03*
X204592500Y-124934810D03*
%TD*%
%TO.C,S29*%
X229665500Y-90294810D03*
X242592500Y-92834810D03*
%TD*%
%TO.C,S3*%
X134665500Y-116344810D03*
X147592500Y-118884810D03*
%TD*%
%TO.C,S1*%
X134665500Y-154444810D03*
X147592500Y-156984810D03*
%TD*%
%TO.C,S13*%
X172665500Y-106344810D03*
X185592500Y-108884810D03*
%TD*%
%TO.C,S22*%
X210665500Y-125394810D03*
X223592500Y-127934810D03*
%TD*%
%TO.C,S7*%
X153665500Y-135394810D03*
X166592500Y-137934810D03*
%TD*%
%TO.C,S23*%
X210665500Y-106344810D03*
X223592500Y-108884810D03*
%TD*%
%TO.C,S16*%
X191665500Y-141444810D03*
X204592500Y-143984810D03*
%TD*%
%TO.C,S19*%
X191665500Y-84294810D03*
X204592500Y-86834810D03*
%TD*%
%TO.C,S14*%
X172665500Y-87294810D03*
X185592500Y-89834810D03*
%TD*%
%TO.C,S2*%
X134665500Y-135394810D03*
X147592500Y-137934810D03*
%TD*%
%TO.C,S8*%
X153665500Y-116344810D03*
X166592500Y-118884810D03*
%TD*%
%TO.C,S26*%
X229665500Y-147444810D03*
X242592500Y-149984810D03*
%TD*%
%TO.C,S5*%
X153665500Y-173494810D03*
X166592500Y-176034810D03*
%TD*%
%TO.C,S9*%
X153665500Y-97294810D03*
X166592500Y-99834810D03*
%TD*%
%TO.C,S18*%
X191665500Y-103344810D03*
X204592500Y-105884810D03*
%TD*%
%TO.C,S1*%
X134666000Y-173500000D03*
X147593000Y-176040000D03*
%TD*%
M02*
