%TF.GenerationSoftware,KiCad,Pcbnew,7.0.2*%
%TF.CreationDate,2023-04-26T23:00:13+02:00*%
%TF.ProjectId,phoenix-no-controller,70686f65-6e69-4782-9d6e-6f2d636f6e74,v1.0.0*%
%TF.SameCoordinates,Original*%
%TF.FileFunction,Legend,Bot*%
%TF.FilePolarity,Positive*%
%FSLAX46Y46*%
G04 Gerber Fmt 4.6, Leading zero omitted, Abs format (unit mm)*
G04 Created by KiCad (PCBNEW 7.0.2) date 2023-04-26 23:00:13*
%MOMM*%
%LPD*%
G01*
G04 APERTURE LIST*
%ADD10C,0.150000*%
G04 APERTURE END LIST*
D10*
X250468190Y-134919523D02*
X250430095Y-134995713D01*
X250430095Y-134995713D02*
X250430095Y-135109999D01*
X250430095Y-135109999D02*
X250468190Y-135224285D01*
X250468190Y-135224285D02*
X250544380Y-135300475D01*
X250544380Y-135300475D02*
X250620571Y-135338570D01*
X250620571Y-135338570D02*
X250772952Y-135376666D01*
X250772952Y-135376666D02*
X250887238Y-135376666D01*
X250887238Y-135376666D02*
X251039619Y-135338570D01*
X251039619Y-135338570D02*
X251115809Y-135300475D01*
X251115809Y-135300475D02*
X251192000Y-135224285D01*
X251192000Y-135224285D02*
X251230095Y-135109999D01*
X251230095Y-135109999D02*
X251230095Y-135033808D01*
X251230095Y-135033808D02*
X251192000Y-134919523D01*
X251192000Y-134919523D02*
X251153904Y-134881427D01*
X251153904Y-134881427D02*
X250887238Y-134881427D01*
X250887238Y-134881427D02*
X250887238Y-135033808D01*
X251230095Y-134538570D02*
X250430095Y-134538570D01*
X250430095Y-134538570D02*
X251230095Y-134081427D01*
X251230095Y-134081427D02*
X250430095Y-134081427D01*
X251230095Y-133700475D02*
X250430095Y-133700475D01*
X250430095Y-133700475D02*
X250430095Y-133509999D01*
X250430095Y-133509999D02*
X250468190Y-133395713D01*
X250468190Y-133395713D02*
X250544380Y-133319523D01*
X250544380Y-133319523D02*
X250620571Y-133281428D01*
X250620571Y-133281428D02*
X250772952Y-133243332D01*
X250772952Y-133243332D02*
X250887238Y-133243332D01*
X250887238Y-133243332D02*
X251039619Y-133281428D01*
X251039619Y-133281428D02*
X251115809Y-133319523D01*
X251115809Y-133319523D02*
X251192000Y-133395713D01*
X251192000Y-133395713D02*
X251230095Y-133509999D01*
X251230095Y-133509999D02*
X251230095Y-133700475D01*
X208138095Y-176871047D02*
X207871429Y-176871047D01*
X207871429Y-177290095D02*
X207871429Y-176490095D01*
X207871429Y-176490095D02*
X208252381Y-176490095D01*
X208861905Y-177252000D02*
X208785714Y-177290095D01*
X208785714Y-177290095D02*
X208633333Y-177290095D01*
X208633333Y-177290095D02*
X208557143Y-177252000D01*
X208557143Y-177252000D02*
X208519047Y-177175809D01*
X208519047Y-177175809D02*
X208519047Y-176871047D01*
X208519047Y-176871047D02*
X208557143Y-176794857D01*
X208557143Y-176794857D02*
X208633333Y-176756761D01*
X208633333Y-176756761D02*
X208785714Y-176756761D01*
X208785714Y-176756761D02*
X208861905Y-176794857D01*
X208861905Y-176794857D02*
X208900000Y-176871047D01*
X208900000Y-176871047D02*
X208900000Y-176947238D01*
X208900000Y-176947238D02*
X208519047Y-177023428D01*
X209242857Y-176756761D02*
X209242857Y-177290095D01*
X209242857Y-176832952D02*
X209280952Y-176794857D01*
X209280952Y-176794857D02*
X209357142Y-176756761D01*
X209357142Y-176756761D02*
X209471428Y-176756761D01*
X209471428Y-176756761D02*
X209547619Y-176794857D01*
X209547619Y-176794857D02*
X209585714Y-176871047D01*
X209585714Y-176871047D02*
X209585714Y-177290095D01*
X209966667Y-177290095D02*
X209966667Y-176756761D01*
X209966667Y-176490095D02*
X209928571Y-176528190D01*
X209928571Y-176528190D02*
X209966667Y-176566285D01*
X209966667Y-176566285D02*
X210004762Y-176528190D01*
X210004762Y-176528190D02*
X209966667Y-176490095D01*
X209966667Y-176490095D02*
X209966667Y-176566285D01*
X210271428Y-177290095D02*
X210690476Y-176756761D01*
X210271428Y-176756761D02*
X210690476Y-177290095D01*
X212023809Y-177290095D02*
X211566666Y-177290095D01*
X211795238Y-177290095D02*
X211795238Y-176490095D01*
X211795238Y-176490095D02*
X211719047Y-176604380D01*
X211719047Y-176604380D02*
X211642857Y-176680571D01*
X211642857Y-176680571D02*
X211566666Y-176718666D01*
X212366667Y-177213904D02*
X212404762Y-177252000D01*
X212404762Y-177252000D02*
X212366667Y-177290095D01*
X212366667Y-177290095D02*
X212328571Y-177252000D01*
X212328571Y-177252000D02*
X212366667Y-177213904D01*
X212366667Y-177213904D02*
X212366667Y-177290095D01*
X212900000Y-176490095D02*
X212976190Y-176490095D01*
X212976190Y-176490095D02*
X213052381Y-176528190D01*
X213052381Y-176528190D02*
X213090476Y-176566285D01*
X213090476Y-176566285D02*
X213128571Y-176642476D01*
X213128571Y-176642476D02*
X213166666Y-176794857D01*
X213166666Y-176794857D02*
X213166666Y-176985333D01*
X213166666Y-176985333D02*
X213128571Y-177137714D01*
X213128571Y-177137714D02*
X213090476Y-177213904D01*
X213090476Y-177213904D02*
X213052381Y-177252000D01*
X213052381Y-177252000D02*
X212976190Y-177290095D01*
X212976190Y-177290095D02*
X212900000Y-177290095D01*
X212900000Y-177290095D02*
X212823809Y-177252000D01*
X212823809Y-177252000D02*
X212785714Y-177213904D01*
X212785714Y-177213904D02*
X212747619Y-177137714D01*
X212747619Y-177137714D02*
X212709523Y-176985333D01*
X212709523Y-176985333D02*
X212709523Y-176794857D01*
X212709523Y-176794857D02*
X212747619Y-176642476D01*
X212747619Y-176642476D02*
X212785714Y-176566285D01*
X212785714Y-176566285D02*
X212823809Y-176528190D01*
X212823809Y-176528190D02*
X212900000Y-176490095D01*
X251210095Y-118773332D02*
X250829142Y-119039999D01*
X251210095Y-119230475D02*
X250410095Y-119230475D01*
X250410095Y-119230475D02*
X250410095Y-118925713D01*
X250410095Y-118925713D02*
X250448190Y-118849523D01*
X250448190Y-118849523D02*
X250486285Y-118811428D01*
X250486285Y-118811428D02*
X250562476Y-118773332D01*
X250562476Y-118773332D02*
X250676761Y-118773332D01*
X250676761Y-118773332D02*
X250752952Y-118811428D01*
X250752952Y-118811428D02*
X250791047Y-118849523D01*
X250791047Y-118849523D02*
X250829142Y-118925713D01*
X250829142Y-118925713D02*
X250829142Y-119230475D01*
X250410095Y-118506666D02*
X250410095Y-118011428D01*
X250410095Y-118011428D02*
X250714857Y-118278094D01*
X250714857Y-118278094D02*
X250714857Y-118163809D01*
X250714857Y-118163809D02*
X250752952Y-118087618D01*
X250752952Y-118087618D02*
X250791047Y-118049523D01*
X250791047Y-118049523D02*
X250867238Y-118011428D01*
X250867238Y-118011428D02*
X251057714Y-118011428D01*
X251057714Y-118011428D02*
X251133904Y-118049523D01*
X251133904Y-118049523D02*
X251172000Y-118087618D01*
X251172000Y-118087618D02*
X251210095Y-118163809D01*
X251210095Y-118163809D02*
X251210095Y-118392380D01*
X251210095Y-118392380D02*
X251172000Y-118468571D01*
X251172000Y-118468571D02*
X251133904Y-118506666D01*
X251210095Y-116223332D02*
X250829142Y-116489999D01*
X251210095Y-116680475D02*
X250410095Y-116680475D01*
X250410095Y-116680475D02*
X250410095Y-116375713D01*
X250410095Y-116375713D02*
X250448190Y-116299523D01*
X250448190Y-116299523D02*
X250486285Y-116261428D01*
X250486285Y-116261428D02*
X250562476Y-116223332D01*
X250562476Y-116223332D02*
X250676761Y-116223332D01*
X250676761Y-116223332D02*
X250752952Y-116261428D01*
X250752952Y-116261428D02*
X250791047Y-116299523D01*
X250791047Y-116299523D02*
X250829142Y-116375713D01*
X250829142Y-116375713D02*
X250829142Y-116680475D01*
X250486285Y-115918571D02*
X250448190Y-115880475D01*
X250448190Y-115880475D02*
X250410095Y-115804285D01*
X250410095Y-115804285D02*
X250410095Y-115613809D01*
X250410095Y-115613809D02*
X250448190Y-115537618D01*
X250448190Y-115537618D02*
X250486285Y-115499523D01*
X250486285Y-115499523D02*
X250562476Y-115461428D01*
X250562476Y-115461428D02*
X250638666Y-115461428D01*
X250638666Y-115461428D02*
X250752952Y-115499523D01*
X250752952Y-115499523D02*
X251210095Y-115956666D01*
X251210095Y-115956666D02*
X251210095Y-115461428D01*
X251180095Y-113703332D02*
X250799142Y-113969999D01*
X251180095Y-114160475D02*
X250380095Y-114160475D01*
X250380095Y-114160475D02*
X250380095Y-113855713D01*
X250380095Y-113855713D02*
X250418190Y-113779523D01*
X250418190Y-113779523D02*
X250456285Y-113741428D01*
X250456285Y-113741428D02*
X250532476Y-113703332D01*
X250532476Y-113703332D02*
X250646761Y-113703332D01*
X250646761Y-113703332D02*
X250722952Y-113741428D01*
X250722952Y-113741428D02*
X250761047Y-113779523D01*
X250761047Y-113779523D02*
X250799142Y-113855713D01*
X250799142Y-113855713D02*
X250799142Y-114160475D01*
X251180095Y-112941428D02*
X251180095Y-113398571D01*
X251180095Y-113169999D02*
X250380095Y-113169999D01*
X250380095Y-113169999D02*
X250494380Y-113246190D01*
X250494380Y-113246190D02*
X250570571Y-113322380D01*
X250570571Y-113322380D02*
X250608666Y-113398571D01*
X251220095Y-96120475D02*
X250420095Y-96120475D01*
X250420095Y-96120475D02*
X250420095Y-95815713D01*
X250420095Y-95815713D02*
X250458190Y-95739523D01*
X250458190Y-95739523D02*
X250496285Y-95701428D01*
X250496285Y-95701428D02*
X250572476Y-95663332D01*
X250572476Y-95663332D02*
X250686761Y-95663332D01*
X250686761Y-95663332D02*
X250762952Y-95701428D01*
X250762952Y-95701428D02*
X250801047Y-95739523D01*
X250801047Y-95739523D02*
X250839142Y-95815713D01*
X250839142Y-95815713D02*
X250839142Y-96120475D01*
X250420095Y-95396666D02*
X250420095Y-94901428D01*
X250420095Y-94901428D02*
X250724857Y-95168094D01*
X250724857Y-95168094D02*
X250724857Y-95053809D01*
X250724857Y-95053809D02*
X250762952Y-94977618D01*
X250762952Y-94977618D02*
X250801047Y-94939523D01*
X250801047Y-94939523D02*
X250877238Y-94901428D01*
X250877238Y-94901428D02*
X251067714Y-94901428D01*
X251067714Y-94901428D02*
X251143904Y-94939523D01*
X251143904Y-94939523D02*
X251182000Y-94977618D01*
X251182000Y-94977618D02*
X251220095Y-95053809D01*
X251220095Y-95053809D02*
X251220095Y-95282380D01*
X251220095Y-95282380D02*
X251182000Y-95358571D01*
X251182000Y-95358571D02*
X251143904Y-95396666D01*
X251220095Y-101160475D02*
X250420095Y-101160475D01*
X250420095Y-101160475D02*
X250420095Y-100855713D01*
X250420095Y-100855713D02*
X250458190Y-100779523D01*
X250458190Y-100779523D02*
X250496285Y-100741428D01*
X250496285Y-100741428D02*
X250572476Y-100703332D01*
X250572476Y-100703332D02*
X250686761Y-100703332D01*
X250686761Y-100703332D02*
X250762952Y-100741428D01*
X250762952Y-100741428D02*
X250801047Y-100779523D01*
X250801047Y-100779523D02*
X250839142Y-100855713D01*
X250839142Y-100855713D02*
X250839142Y-101160475D01*
X250420095Y-99979523D02*
X250420095Y-100360475D01*
X250420095Y-100360475D02*
X250801047Y-100398571D01*
X250801047Y-100398571D02*
X250762952Y-100360475D01*
X250762952Y-100360475D02*
X250724857Y-100284285D01*
X250724857Y-100284285D02*
X250724857Y-100093809D01*
X250724857Y-100093809D02*
X250762952Y-100017618D01*
X250762952Y-100017618D02*
X250801047Y-99979523D01*
X250801047Y-99979523D02*
X250877238Y-99941428D01*
X250877238Y-99941428D02*
X251067714Y-99941428D01*
X251067714Y-99941428D02*
X251143904Y-99979523D01*
X251143904Y-99979523D02*
X251182000Y-100017618D01*
X251182000Y-100017618D02*
X251220095Y-100093809D01*
X251220095Y-100093809D02*
X251220095Y-100284285D01*
X251220095Y-100284285D02*
X251182000Y-100360475D01*
X251182000Y-100360475D02*
X251143904Y-100398571D01*
X251240095Y-132204285D02*
X251240095Y-132585237D01*
X251240095Y-132585237D02*
X250440095Y-132585237D01*
X250821047Y-131937618D02*
X250821047Y-131670952D01*
X251240095Y-131556666D02*
X251240095Y-131937618D01*
X251240095Y-131937618D02*
X250440095Y-131937618D01*
X250440095Y-131937618D02*
X250440095Y-131556666D01*
X251240095Y-131213808D02*
X250440095Y-131213808D01*
X250440095Y-131213808D02*
X250440095Y-131023332D01*
X250440095Y-131023332D02*
X250478190Y-130909046D01*
X250478190Y-130909046D02*
X250554380Y-130832856D01*
X250554380Y-130832856D02*
X250630571Y-130794761D01*
X250630571Y-130794761D02*
X250782952Y-130756665D01*
X250782952Y-130756665D02*
X250897238Y-130756665D01*
X250897238Y-130756665D02*
X251049619Y-130794761D01*
X251049619Y-130794761D02*
X251125809Y-130832856D01*
X251125809Y-130832856D02*
X251202000Y-130909046D01*
X251202000Y-130909046D02*
X251240095Y-131023332D01*
X251240095Y-131023332D02*
X251240095Y-131213808D01*
X251270095Y-153700475D02*
X250470095Y-153700475D01*
X250470095Y-153700475D02*
X250470095Y-153395713D01*
X250470095Y-153395713D02*
X250508190Y-153319523D01*
X250508190Y-153319523D02*
X250546285Y-153281428D01*
X250546285Y-153281428D02*
X250622476Y-153243332D01*
X250622476Y-153243332D02*
X250736761Y-153243332D01*
X250736761Y-153243332D02*
X250812952Y-153281428D01*
X250812952Y-153281428D02*
X250851047Y-153319523D01*
X250851047Y-153319523D02*
X250889142Y-153395713D01*
X250889142Y-153395713D02*
X250889142Y-153700475D01*
X250470095Y-152557618D02*
X250470095Y-152709999D01*
X250470095Y-152709999D02*
X250508190Y-152786190D01*
X250508190Y-152786190D02*
X250546285Y-152824285D01*
X250546285Y-152824285D02*
X250660571Y-152900475D01*
X250660571Y-152900475D02*
X250812952Y-152938571D01*
X250812952Y-152938571D02*
X251117714Y-152938571D01*
X251117714Y-152938571D02*
X251193904Y-152900475D01*
X251193904Y-152900475D02*
X251232000Y-152862380D01*
X251232000Y-152862380D02*
X251270095Y-152786190D01*
X251270095Y-152786190D02*
X251270095Y-152633809D01*
X251270095Y-152633809D02*
X251232000Y-152557618D01*
X251232000Y-152557618D02*
X251193904Y-152519523D01*
X251193904Y-152519523D02*
X251117714Y-152481428D01*
X251117714Y-152481428D02*
X250927238Y-152481428D01*
X250927238Y-152481428D02*
X250851047Y-152519523D01*
X250851047Y-152519523D02*
X250812952Y-152557618D01*
X250812952Y-152557618D02*
X250774857Y-152633809D01*
X250774857Y-152633809D02*
X250774857Y-152786190D01*
X250774857Y-152786190D02*
X250812952Y-152862380D01*
X250812952Y-152862380D02*
X250851047Y-152900475D01*
X250851047Y-152900475D02*
X250927238Y-152938571D01*
X251190095Y-93600475D02*
X250390095Y-93600475D01*
X250390095Y-93600475D02*
X250390095Y-93295713D01*
X250390095Y-93295713D02*
X250428190Y-93219523D01*
X250428190Y-93219523D02*
X250466285Y-93181428D01*
X250466285Y-93181428D02*
X250542476Y-93143332D01*
X250542476Y-93143332D02*
X250656761Y-93143332D01*
X250656761Y-93143332D02*
X250732952Y-93181428D01*
X250732952Y-93181428D02*
X250771047Y-93219523D01*
X250771047Y-93219523D02*
X250809142Y-93295713D01*
X250809142Y-93295713D02*
X250809142Y-93600475D01*
X250466285Y-92838571D02*
X250428190Y-92800475D01*
X250428190Y-92800475D02*
X250390095Y-92724285D01*
X250390095Y-92724285D02*
X250390095Y-92533809D01*
X250390095Y-92533809D02*
X250428190Y-92457618D01*
X250428190Y-92457618D02*
X250466285Y-92419523D01*
X250466285Y-92419523D02*
X250542476Y-92381428D01*
X250542476Y-92381428D02*
X250618666Y-92381428D01*
X250618666Y-92381428D02*
X250732952Y-92419523D01*
X250732952Y-92419523D02*
X251190095Y-92876666D01*
X251190095Y-92876666D02*
X251190095Y-92381428D01*
X251260095Y-143133332D02*
X250879142Y-143399999D01*
X251260095Y-143590475D02*
X250460095Y-143590475D01*
X250460095Y-143590475D02*
X250460095Y-143285713D01*
X250460095Y-143285713D02*
X250498190Y-143209523D01*
X250498190Y-143209523D02*
X250536285Y-143171428D01*
X250536285Y-143171428D02*
X250612476Y-143133332D01*
X250612476Y-143133332D02*
X250726761Y-143133332D01*
X250726761Y-143133332D02*
X250802952Y-143171428D01*
X250802952Y-143171428D02*
X250841047Y-143209523D01*
X250841047Y-143209523D02*
X250879142Y-143285713D01*
X250879142Y-143285713D02*
X250879142Y-143590475D01*
X250460095Y-142409523D02*
X250460095Y-142790475D01*
X250460095Y-142790475D02*
X250841047Y-142828571D01*
X250841047Y-142828571D02*
X250802952Y-142790475D01*
X250802952Y-142790475D02*
X250764857Y-142714285D01*
X250764857Y-142714285D02*
X250764857Y-142523809D01*
X250764857Y-142523809D02*
X250802952Y-142447618D01*
X250802952Y-142447618D02*
X250841047Y-142409523D01*
X250841047Y-142409523D02*
X250917238Y-142371428D01*
X250917238Y-142371428D02*
X251107714Y-142371428D01*
X251107714Y-142371428D02*
X251183904Y-142409523D01*
X251183904Y-142409523D02*
X251222000Y-142447618D01*
X251222000Y-142447618D02*
X251260095Y-142523809D01*
X251260095Y-142523809D02*
X251260095Y-142714285D01*
X251260095Y-142714285D02*
X251222000Y-142790475D01*
X251222000Y-142790475D02*
X251183904Y-142828571D01*
X251250095Y-148670475D02*
X250450095Y-148670475D01*
X250450095Y-148670475D02*
X250450095Y-148365713D01*
X250450095Y-148365713D02*
X250488190Y-148289523D01*
X250488190Y-148289523D02*
X250526285Y-148251428D01*
X250526285Y-148251428D02*
X250602476Y-148213332D01*
X250602476Y-148213332D02*
X250716761Y-148213332D01*
X250716761Y-148213332D02*
X250792952Y-148251428D01*
X250792952Y-148251428D02*
X250831047Y-148289523D01*
X250831047Y-148289523D02*
X250869142Y-148365713D01*
X250869142Y-148365713D02*
X250869142Y-148670475D01*
X250716761Y-147527618D02*
X251250095Y-147527618D01*
X250412000Y-147718094D02*
X250983428Y-147908571D01*
X250983428Y-147908571D02*
X250983428Y-147413332D01*
X251180095Y-111103332D02*
X250799142Y-111369999D01*
X251180095Y-111560475D02*
X250380095Y-111560475D01*
X250380095Y-111560475D02*
X250380095Y-111255713D01*
X250380095Y-111255713D02*
X250418190Y-111179523D01*
X250418190Y-111179523D02*
X250456285Y-111141428D01*
X250456285Y-111141428D02*
X250532476Y-111103332D01*
X250532476Y-111103332D02*
X250646761Y-111103332D01*
X250646761Y-111103332D02*
X250722952Y-111141428D01*
X250722952Y-111141428D02*
X250761047Y-111179523D01*
X250761047Y-111179523D02*
X250799142Y-111255713D01*
X250799142Y-111255713D02*
X250799142Y-111560475D01*
X250380095Y-110608094D02*
X250380095Y-110531904D01*
X250380095Y-110531904D02*
X250418190Y-110455713D01*
X250418190Y-110455713D02*
X250456285Y-110417618D01*
X250456285Y-110417618D02*
X250532476Y-110379523D01*
X250532476Y-110379523D02*
X250684857Y-110341428D01*
X250684857Y-110341428D02*
X250875333Y-110341428D01*
X250875333Y-110341428D02*
X251027714Y-110379523D01*
X251027714Y-110379523D02*
X251103904Y-110417618D01*
X251103904Y-110417618D02*
X251142000Y-110455713D01*
X251142000Y-110455713D02*
X251180095Y-110531904D01*
X251180095Y-110531904D02*
X251180095Y-110608094D01*
X251180095Y-110608094D02*
X251142000Y-110684285D01*
X251142000Y-110684285D02*
X251103904Y-110722380D01*
X251103904Y-110722380D02*
X251027714Y-110760475D01*
X251027714Y-110760475D02*
X250875333Y-110798571D01*
X250875333Y-110798571D02*
X250684857Y-110798571D01*
X250684857Y-110798571D02*
X250532476Y-110760475D01*
X250532476Y-110760475D02*
X250456285Y-110722380D01*
X250456285Y-110722380D02*
X250418190Y-110684285D01*
X250418190Y-110684285D02*
X250380095Y-110608094D01*
X251220095Y-98670475D02*
X250420095Y-98670475D01*
X250420095Y-98670475D02*
X250420095Y-98365713D01*
X250420095Y-98365713D02*
X250458190Y-98289523D01*
X250458190Y-98289523D02*
X250496285Y-98251428D01*
X250496285Y-98251428D02*
X250572476Y-98213332D01*
X250572476Y-98213332D02*
X250686761Y-98213332D01*
X250686761Y-98213332D02*
X250762952Y-98251428D01*
X250762952Y-98251428D02*
X250801047Y-98289523D01*
X250801047Y-98289523D02*
X250839142Y-98365713D01*
X250839142Y-98365713D02*
X250839142Y-98670475D01*
X250686761Y-97527618D02*
X251220095Y-97527618D01*
X250382000Y-97718094D02*
X250953428Y-97908571D01*
X250953428Y-97908571D02*
X250953428Y-97413332D01*
X251190095Y-103800475D02*
X250390095Y-103800475D01*
X250390095Y-103800475D02*
X250390095Y-103495713D01*
X250390095Y-103495713D02*
X250428190Y-103419523D01*
X250428190Y-103419523D02*
X250466285Y-103381428D01*
X250466285Y-103381428D02*
X250542476Y-103343332D01*
X250542476Y-103343332D02*
X250656761Y-103343332D01*
X250656761Y-103343332D02*
X250732952Y-103381428D01*
X250732952Y-103381428D02*
X250771047Y-103419523D01*
X250771047Y-103419523D02*
X250809142Y-103495713D01*
X250809142Y-103495713D02*
X250809142Y-103800475D01*
X250390095Y-102657618D02*
X250390095Y-102809999D01*
X250390095Y-102809999D02*
X250428190Y-102886190D01*
X250428190Y-102886190D02*
X250466285Y-102924285D01*
X250466285Y-102924285D02*
X250580571Y-103000475D01*
X250580571Y-103000475D02*
X250732952Y-103038571D01*
X250732952Y-103038571D02*
X251037714Y-103038571D01*
X251037714Y-103038571D02*
X251113904Y-103000475D01*
X251113904Y-103000475D02*
X251152000Y-102962380D01*
X251152000Y-102962380D02*
X251190095Y-102886190D01*
X251190095Y-102886190D02*
X251190095Y-102733809D01*
X251190095Y-102733809D02*
X251152000Y-102657618D01*
X251152000Y-102657618D02*
X251113904Y-102619523D01*
X251113904Y-102619523D02*
X251037714Y-102581428D01*
X251037714Y-102581428D02*
X250847238Y-102581428D01*
X250847238Y-102581428D02*
X250771047Y-102619523D01*
X250771047Y-102619523D02*
X250732952Y-102657618D01*
X250732952Y-102657618D02*
X250694857Y-102733809D01*
X250694857Y-102733809D02*
X250694857Y-102886190D01*
X250694857Y-102886190D02*
X250732952Y-102962380D01*
X250732952Y-102962380D02*
X250771047Y-103000475D01*
X250771047Y-103000475D02*
X250847238Y-103038571D01*
X250420095Y-137936666D02*
X251220095Y-137669999D01*
X251220095Y-137669999D02*
X250420095Y-137403333D01*
X251143904Y-136679523D02*
X251182000Y-136717619D01*
X251182000Y-136717619D02*
X251220095Y-136831904D01*
X251220095Y-136831904D02*
X251220095Y-136908095D01*
X251220095Y-136908095D02*
X251182000Y-137022381D01*
X251182000Y-137022381D02*
X251105809Y-137098571D01*
X251105809Y-137098571D02*
X251029619Y-137136666D01*
X251029619Y-137136666D02*
X250877238Y-137174762D01*
X250877238Y-137174762D02*
X250762952Y-137174762D01*
X250762952Y-137174762D02*
X250610571Y-137136666D01*
X250610571Y-137136666D02*
X250534380Y-137098571D01*
X250534380Y-137098571D02*
X250458190Y-137022381D01*
X250458190Y-137022381D02*
X250420095Y-136908095D01*
X250420095Y-136908095D02*
X250420095Y-136831904D01*
X250420095Y-136831904D02*
X250458190Y-136717619D01*
X250458190Y-136717619D02*
X250496285Y-136679523D01*
X251143904Y-135879523D02*
X251182000Y-135917619D01*
X251182000Y-135917619D02*
X251220095Y-136031904D01*
X251220095Y-136031904D02*
X251220095Y-136108095D01*
X251220095Y-136108095D02*
X251182000Y-136222381D01*
X251182000Y-136222381D02*
X251105809Y-136298571D01*
X251105809Y-136298571D02*
X251029619Y-136336666D01*
X251029619Y-136336666D02*
X250877238Y-136374762D01*
X250877238Y-136374762D02*
X250762952Y-136374762D01*
X250762952Y-136374762D02*
X250610571Y-136336666D01*
X250610571Y-136336666D02*
X250534380Y-136298571D01*
X250534380Y-136298571D02*
X250458190Y-136222381D01*
X250458190Y-136222381D02*
X250420095Y-136108095D01*
X250420095Y-136108095D02*
X250420095Y-136031904D01*
X250420095Y-136031904D02*
X250458190Y-135917619D01*
X250458190Y-135917619D02*
X250496285Y-135879523D01*
X251210095Y-121263332D02*
X250829142Y-121529999D01*
X251210095Y-121720475D02*
X250410095Y-121720475D01*
X250410095Y-121720475D02*
X250410095Y-121415713D01*
X250410095Y-121415713D02*
X250448190Y-121339523D01*
X250448190Y-121339523D02*
X250486285Y-121301428D01*
X250486285Y-121301428D02*
X250562476Y-121263332D01*
X250562476Y-121263332D02*
X250676761Y-121263332D01*
X250676761Y-121263332D02*
X250752952Y-121301428D01*
X250752952Y-121301428D02*
X250791047Y-121339523D01*
X250791047Y-121339523D02*
X250829142Y-121415713D01*
X250829142Y-121415713D02*
X250829142Y-121720475D01*
X250676761Y-120577618D02*
X251210095Y-120577618D01*
X250372000Y-120768094D02*
X250943428Y-120958571D01*
X250943428Y-120958571D02*
X250943428Y-120463332D01*
X251240095Y-151190475D02*
X250440095Y-151190475D01*
X250440095Y-151190475D02*
X250440095Y-150885713D01*
X250440095Y-150885713D02*
X250478190Y-150809523D01*
X250478190Y-150809523D02*
X250516285Y-150771428D01*
X250516285Y-150771428D02*
X250592476Y-150733332D01*
X250592476Y-150733332D02*
X250706761Y-150733332D01*
X250706761Y-150733332D02*
X250782952Y-150771428D01*
X250782952Y-150771428D02*
X250821047Y-150809523D01*
X250821047Y-150809523D02*
X250859142Y-150885713D01*
X250859142Y-150885713D02*
X250859142Y-151190475D01*
X250440095Y-150009523D02*
X250440095Y-150390475D01*
X250440095Y-150390475D02*
X250821047Y-150428571D01*
X250821047Y-150428571D02*
X250782952Y-150390475D01*
X250782952Y-150390475D02*
X250744857Y-150314285D01*
X250744857Y-150314285D02*
X250744857Y-150123809D01*
X250744857Y-150123809D02*
X250782952Y-150047618D01*
X250782952Y-150047618D02*
X250821047Y-150009523D01*
X250821047Y-150009523D02*
X250897238Y-149971428D01*
X250897238Y-149971428D02*
X251087714Y-149971428D01*
X251087714Y-149971428D02*
X251163904Y-150009523D01*
X251163904Y-150009523D02*
X251202000Y-150047618D01*
X251202000Y-150047618D02*
X251240095Y-150123809D01*
X251240095Y-150123809D02*
X251240095Y-150314285D01*
X251240095Y-150314285D02*
X251202000Y-150390475D01*
X251202000Y-150390475D02*
X251163904Y-150428571D01*
X251220095Y-146180475D02*
X250420095Y-146180475D01*
X250420095Y-146180475D02*
X250420095Y-145875713D01*
X250420095Y-145875713D02*
X250458190Y-145799523D01*
X250458190Y-145799523D02*
X250496285Y-145761428D01*
X250496285Y-145761428D02*
X250572476Y-145723332D01*
X250572476Y-145723332D02*
X250686761Y-145723332D01*
X250686761Y-145723332D02*
X250762952Y-145761428D01*
X250762952Y-145761428D02*
X250801047Y-145799523D01*
X250801047Y-145799523D02*
X250839142Y-145875713D01*
X250839142Y-145875713D02*
X250839142Y-146180475D01*
X250420095Y-145456666D02*
X250420095Y-144961428D01*
X250420095Y-144961428D02*
X250724857Y-145228094D01*
X250724857Y-145228094D02*
X250724857Y-145113809D01*
X250724857Y-145113809D02*
X250762952Y-145037618D01*
X250762952Y-145037618D02*
X250801047Y-144999523D01*
X250801047Y-144999523D02*
X250877238Y-144961428D01*
X250877238Y-144961428D02*
X251067714Y-144961428D01*
X251067714Y-144961428D02*
X251143904Y-144999523D01*
X251143904Y-144999523D02*
X251182000Y-145037618D01*
X251182000Y-145037618D02*
X251220095Y-145113809D01*
X251220095Y-145113809D02*
X251220095Y-145342380D01*
X251220095Y-145342380D02*
X251182000Y-145418571D01*
X251182000Y-145418571D02*
X251143904Y-145456666D01*
X251190095Y-91000475D02*
X250390095Y-91000475D01*
X250390095Y-91000475D02*
X250390095Y-90695713D01*
X250390095Y-90695713D02*
X250428190Y-90619523D01*
X250428190Y-90619523D02*
X250466285Y-90581428D01*
X250466285Y-90581428D02*
X250542476Y-90543332D01*
X250542476Y-90543332D02*
X250656761Y-90543332D01*
X250656761Y-90543332D02*
X250732952Y-90581428D01*
X250732952Y-90581428D02*
X250771047Y-90619523D01*
X250771047Y-90619523D02*
X250809142Y-90695713D01*
X250809142Y-90695713D02*
X250809142Y-91000475D01*
X251190095Y-89781428D02*
X251190095Y-90238571D01*
X251190095Y-90009999D02*
X250390095Y-90009999D01*
X250390095Y-90009999D02*
X250504380Y-90086190D01*
X250504380Y-90086190D02*
X250580571Y-90162380D01*
X250580571Y-90162380D02*
X250618666Y-90238571D01*
X251180095Y-123903332D02*
X250799142Y-124169999D01*
X251180095Y-124360475D02*
X250380095Y-124360475D01*
X250380095Y-124360475D02*
X250380095Y-124055713D01*
X250380095Y-124055713D02*
X250418190Y-123979523D01*
X250418190Y-123979523D02*
X250456285Y-123941428D01*
X250456285Y-123941428D02*
X250532476Y-123903332D01*
X250532476Y-123903332D02*
X250646761Y-123903332D01*
X250646761Y-123903332D02*
X250722952Y-123941428D01*
X250722952Y-123941428D02*
X250761047Y-123979523D01*
X250761047Y-123979523D02*
X250799142Y-124055713D01*
X250799142Y-124055713D02*
X250799142Y-124360475D01*
X250380095Y-123179523D02*
X250380095Y-123560475D01*
X250380095Y-123560475D02*
X250761047Y-123598571D01*
X250761047Y-123598571D02*
X250722952Y-123560475D01*
X250722952Y-123560475D02*
X250684857Y-123484285D01*
X250684857Y-123484285D02*
X250684857Y-123293809D01*
X250684857Y-123293809D02*
X250722952Y-123217618D01*
X250722952Y-123217618D02*
X250761047Y-123179523D01*
X250761047Y-123179523D02*
X250837238Y-123141428D01*
X250837238Y-123141428D02*
X251027714Y-123141428D01*
X251027714Y-123141428D02*
X251103904Y-123179523D01*
X251103904Y-123179523D02*
X251142000Y-123217618D01*
X251142000Y-123217618D02*
X251180095Y-123293809D01*
X251180095Y-123293809D02*
X251180095Y-123484285D01*
X251180095Y-123484285D02*
X251142000Y-123560475D01*
X251142000Y-123560475D02*
X251103904Y-123598571D01*
%TO.C,D25*%
X230200000Y-103630000D02*
X229300000Y-102930000D01*
X230200000Y-102930000D02*
X230200000Y-104330000D01*
X229300000Y-104330000D02*
X230200000Y-103630000D01*
X229300000Y-102930000D02*
X229300000Y-104330000D01*
X191940000Y-138310000D02*
X191040000Y-137610000D01*
X191940000Y-137610000D02*
X191940000Y-139010000D01*
X191040000Y-139010000D02*
X191940000Y-138310000D01*
X191040000Y-137610000D02*
X191040000Y-139010000D01*
X211020000Y-103200000D02*
X210120000Y-102500000D01*
X211020000Y-102500000D02*
X211020000Y-103900000D01*
X210120000Y-103900000D02*
X211020000Y-103200000D01*
X210120000Y-102500000D02*
X210120000Y-103900000D01*
X154250000Y-151260000D02*
X153350000Y-150560000D01*
X154250000Y-150560000D02*
X154250000Y-151960000D01*
X153350000Y-151960000D02*
X154250000Y-151260000D01*
X153350000Y-150560000D02*
X153350000Y-151960000D01*
X173020000Y-141230000D02*
X172120000Y-140530000D01*
X173020000Y-140530000D02*
X173020000Y-141930000D01*
X172120000Y-141930000D02*
X173020000Y-141230000D01*
X172120000Y-140530000D02*
X172120000Y-141930000D01*
X191930000Y-100240000D02*
X191030000Y-99540000D01*
X191930000Y-99540000D02*
X191930000Y-100940000D01*
X191030000Y-100940000D02*
X191930000Y-100240000D01*
X191030000Y-99540000D02*
X191030000Y-100940000D01*
X153910000Y-110730000D02*
X153010000Y-110030000D01*
X153910000Y-110030000D02*
X153910000Y-111430000D01*
X153010000Y-111430000D02*
X153910000Y-110730000D01*
X153010000Y-110030000D02*
X153010000Y-111430000D01*
X229850000Y-144030000D02*
X228950000Y-143330000D01*
X229850000Y-143330000D02*
X229850000Y-144730000D01*
X228950000Y-144730000D02*
X229850000Y-144030000D01*
X228950000Y-143330000D02*
X228950000Y-144730000D01*
X154170000Y-170310000D02*
X153270000Y-169610000D01*
X154170000Y-169610000D02*
X154170000Y-171010000D01*
X153270000Y-171010000D02*
X154170000Y-170310000D01*
X153270000Y-169610000D02*
X153270000Y-171010000D01*
X210990000Y-160280000D02*
X210090000Y-159580000D01*
X210990000Y-159580000D02*
X210990000Y-160980000D01*
X210090000Y-160980000D02*
X210990000Y-160280000D01*
X210090000Y-159580000D02*
X210090000Y-160980000D01*
X173080000Y-100710000D02*
X172180000Y-100010000D01*
X173080000Y-100010000D02*
X173080000Y-101410000D01*
X172180000Y-101410000D02*
X173080000Y-100710000D01*
X172180000Y-100010000D02*
X172180000Y-101410000D01*
X173200000Y-160300000D02*
X172300000Y-159600000D01*
X173200000Y-159600000D02*
X173200000Y-161000000D01*
X172300000Y-161000000D02*
X173200000Y-160300000D01*
X172300000Y-159600000D02*
X172300000Y-161000000D01*
X135160000Y-113220000D02*
X134260000Y-112520000D01*
X135160000Y-112520000D02*
X135160000Y-113920000D01*
X134260000Y-113920000D02*
X135160000Y-113220000D01*
X134260000Y-112520000D02*
X134260000Y-113920000D01*
X229860000Y-141660000D02*
X228960000Y-140960000D01*
X229860000Y-140960000D02*
X229860000Y-142360000D01*
X228960000Y-142360000D02*
X229860000Y-141660000D01*
X228960000Y-140960000D02*
X228960000Y-142360000D01*
X134870000Y-170270000D02*
X133970000Y-169570000D01*
X134870000Y-169570000D02*
X134870000Y-170970000D01*
X133970000Y-170970000D02*
X134870000Y-170270000D01*
X133970000Y-169570000D02*
X133970000Y-170970000D01*
X230020000Y-106220000D02*
X229120000Y-105520000D01*
X230020000Y-105520000D02*
X230020000Y-106920000D01*
X229120000Y-106920000D02*
X230020000Y-106220000D01*
X229120000Y-105520000D02*
X229120000Y-106920000D01*
X173030000Y-138860000D02*
X172130000Y-138160000D01*
X173030000Y-138160000D02*
X173030000Y-139560000D01*
X172130000Y-139560000D02*
X173030000Y-138860000D01*
X172130000Y-138160000D02*
X172130000Y-139560000D01*
X173060000Y-103150000D02*
X172160000Y-102450000D01*
X173060000Y-102450000D02*
X173060000Y-103850000D01*
X172160000Y-103850000D02*
X173060000Y-103150000D01*
X172160000Y-102450000D02*
X172160000Y-103850000D01*
X135180000Y-148670000D02*
X134280000Y-147970000D01*
X135180000Y-147970000D02*
X135180000Y-149370000D01*
X134280000Y-149370000D02*
X135180000Y-148670000D01*
X134280000Y-147970000D02*
X134280000Y-149370000D01*
X135260000Y-110510000D02*
X134360000Y-109810000D01*
X135260000Y-109810000D02*
X135260000Y-111210000D01*
X134360000Y-111210000D02*
X135260000Y-110510000D01*
X134360000Y-109810000D02*
X134360000Y-111210000D01*
X211070000Y-100710000D02*
X210170000Y-100010000D01*
X211070000Y-100010000D02*
X211070000Y-101410000D01*
X210170000Y-101410000D02*
X211070000Y-100710000D01*
X210170000Y-100010000D02*
X210170000Y-101410000D01*
X210930000Y-138870000D02*
X210030000Y-138170000D01*
X210930000Y-138170000D02*
X210930000Y-139570000D01*
X210030000Y-139570000D02*
X210930000Y-138870000D01*
X210030000Y-138170000D02*
X210030000Y-139570000D01*
X191950000Y-135940000D02*
X191050000Y-135240000D01*
X191950000Y-135240000D02*
X191950000Y-136640000D01*
X191050000Y-136640000D02*
X191950000Y-135940000D01*
X191050000Y-135240000D02*
X191050000Y-136640000D01*
X154310000Y-148860000D02*
X153410000Y-148160000D01*
X154310000Y-148160000D02*
X154310000Y-149560000D01*
X153410000Y-149560000D02*
X154310000Y-148860000D01*
X153410000Y-148160000D02*
X153410000Y-149560000D01*
X135140000Y-151470000D02*
X134240000Y-150770000D01*
X135140000Y-150770000D02*
X135140000Y-152170000D01*
X134240000Y-152170000D02*
X135140000Y-151470000D01*
X134240000Y-150770000D02*
X134240000Y-152170000D01*
X153870000Y-113130000D02*
X152970000Y-112430000D01*
X153870000Y-112430000D02*
X153870000Y-113830000D01*
X152970000Y-113830000D02*
X153870000Y-113130000D01*
X152970000Y-112430000D02*
X152970000Y-113830000D01*
X192230000Y-157500000D02*
X191330000Y-156800000D01*
X192230000Y-156800000D02*
X192230000Y-158200000D01*
X191330000Y-158200000D02*
X192230000Y-157500000D01*
X191330000Y-156800000D02*
X191330000Y-158200000D01*
X191880000Y-97660000D02*
X190980000Y-96960000D01*
X191880000Y-96960000D02*
X191880000Y-98360000D01*
X190980000Y-98360000D02*
X191880000Y-97660000D01*
X190980000Y-96960000D02*
X190980000Y-98360000D01*
X210920000Y-141240000D02*
X210020000Y-140540000D01*
X210920000Y-140540000D02*
X210920000Y-141940000D01*
X210020000Y-141940000D02*
X210920000Y-141240000D01*
X210020000Y-140540000D02*
X210020000Y-141940000D01*
%TD*%
M02*
