M48
; DRILL file {KiCad 7.0.2} date Wed Apr 26 22:59:47 2023
; FORMAT={-:-/ absolute / inch / decimal}
; #@! TF.CreationDate,2023-04-26T22:59:47+02:00
; #@! TF.GenerationSoftware,Kicad,Pcbnew,7.0.2
; #@! TF.FileFunction,NonPlated,1,2,NPTH
FMAT,2
INCH
; #@! TA.AperFunction,NonPlated,NPTH,ComponentDrill
T1C0.0670
; #@! TA.AperFunction,NonPlated,NPTH,ComponentDrill
T2C0.1181
; #@! TA.AperFunction,NonPlated,NPTH,ComponentDrill
T3C0.1570
%
G90
G05
T1
X5.3318Y-4.0305
X5.3318Y-4.7805
X5.3318Y-5.5305
X5.3318Y-6.2805
X5.3318Y-7.0307
X5.7318Y-4.0305
X5.7318Y-4.7805
X5.7318Y-5.5305
X5.7318Y-6.2805
X5.7318Y-7.0307
X6.0798Y-4.0305
X6.0798Y-4.7805
X6.0798Y-5.5305
X6.0798Y-6.2805
X6.0798Y-7.0305
X6.4798Y-4.0305
X6.4798Y-4.7805
X6.4798Y-5.5305
X6.4798Y-6.2805
X6.4798Y-7.0305
X6.8279Y-3.6368
X6.8279Y-4.3868
X6.8279Y-5.1368
X6.8279Y-5.8868
X6.8279Y-6.6368
X7.2279Y-3.6368
X7.2279Y-4.3868
X7.2279Y-5.1368
X7.2279Y-5.8868
X7.2279Y-6.6368
X7.5759Y-3.5187
X7.5759Y-4.2687
X7.5759Y-5.0187
X7.5759Y-5.7687
X7.5759Y-6.5187
X7.9759Y-3.5187
X7.9759Y-4.2687
X7.9759Y-5.0187
X7.9759Y-5.7687
X7.9759Y-6.5187
X8.3239Y-3.6368
X8.3239Y-4.3868
X8.3239Y-5.1368
X8.3239Y-5.8868
X8.3239Y-6.6368
X8.7239Y-3.6368
X8.7239Y-4.3868
X8.7239Y-5.1368
X8.7239Y-5.8868
X8.7239Y-6.6368
X9.0719Y-3.7549
X9.0719Y-4.5049
X9.0719Y-5.2549
X9.0719Y-6.0049
X9.4719Y-3.7549
X9.4719Y-4.5049
X9.4719Y-5.2549
X9.4719Y-6.0049
T2
X5.3818Y-3.9305
X5.3818Y-4.6805
X5.3818Y-5.4305
X5.3818Y-6.1805
X5.3818Y-6.9307
X5.4318Y-3.8305
X5.4318Y-4.5805
X5.4318Y-5.3305
X5.4318Y-6.0805
X5.4318Y-6.8307
X5.6318Y-3.8305
X5.6318Y-4.5805
X5.6318Y-5.3305
X5.6318Y-6.0805
X5.6318Y-6.8307
X5.6818Y-3.9305
X5.6818Y-4.6805
X5.6818Y-5.4305
X5.6818Y-6.1805
X5.6818Y-6.9307
X6.1298Y-3.9305
X6.1298Y-4.6805
X6.1298Y-5.4305
X6.1298Y-6.1805
X6.1298Y-6.9305
X6.1798Y-3.8305
X6.1798Y-4.5805
X6.1798Y-5.3305
X6.1798Y-6.0805
X6.1798Y-6.8305
X6.3798Y-3.8305
X6.3798Y-4.5805
X6.3798Y-5.3305
X6.3798Y-6.0805
X6.3798Y-6.8305
X6.4298Y-3.9305
X6.4298Y-4.6805
X6.4298Y-5.4305
X6.4298Y-6.1805
X6.4298Y-6.9305
X6.8779Y-3.5368
X6.8779Y-4.2868
X6.8779Y-5.0368
X6.8779Y-5.7868
X6.8779Y-6.5368
X6.9279Y-3.4368
X6.9279Y-4.1868
X6.9279Y-4.9368
X6.9279Y-5.6868
X6.9279Y-6.4368
X7.1279Y-3.4368
X7.1279Y-4.1868
X7.1279Y-4.9368
X7.1279Y-5.6868
X7.1279Y-6.4368
X7.1779Y-3.5368
X7.1779Y-4.2868
X7.1779Y-5.0368
X7.1779Y-5.7868
X7.1779Y-6.5368
X7.6259Y-3.4187
X7.6259Y-4.1687
X7.6259Y-4.9187
X7.6259Y-5.6687
X7.6259Y-6.4187
X7.6759Y-3.3187
X7.6759Y-4.0687
X7.6759Y-4.8187
X7.6759Y-5.5687
X7.6759Y-6.3187
X7.8759Y-3.3187
X7.8759Y-4.0687
X7.8759Y-4.8187
X7.8759Y-5.5687
X7.8759Y-6.3187
X7.9259Y-3.4187
X7.9259Y-4.1687
X7.9259Y-4.9187
X7.9259Y-5.6687
X7.9259Y-6.4187
X8.3739Y-3.5368
X8.3739Y-4.2868
X8.3739Y-5.0368
X8.3739Y-5.7868
X8.3739Y-6.5368
X8.4239Y-3.4368
X8.4239Y-4.1868
X8.4239Y-4.9368
X8.4239Y-5.6868
X8.4239Y-6.4368
X8.6239Y-3.4368
X8.6239Y-4.1868
X8.6239Y-4.9368
X8.6239Y-5.6868
X8.6239Y-6.4368
X8.6739Y-3.5368
X8.6739Y-4.2868
X8.6739Y-5.0368
X8.6739Y-5.7868
X8.6739Y-6.5368
X9.1219Y-3.6549
X9.1219Y-4.4049
X9.1219Y-5.1549
X9.1219Y-5.9049
X9.1719Y-3.5549
X9.1719Y-4.3049
X9.1719Y-5.0549
X9.1719Y-5.8049
X9.3719Y-3.5549
X9.3719Y-4.3049
X9.3719Y-5.0549
X9.3719Y-5.8049
X9.4219Y-3.6549
X9.4219Y-4.4049
X9.4219Y-5.1549
X9.4219Y-5.9049
T3
X5.5318Y-4.0305
X5.5318Y-4.7805
X5.5318Y-5.5305
X5.5318Y-6.2805
X5.5318Y-7.0307
X6.2798Y-4.0305
X6.2798Y-4.7805
X6.2798Y-5.5305
X6.2798Y-6.2805
X6.2798Y-7.0305
X7.0279Y-3.6368
X7.0279Y-4.3868
X7.0279Y-5.1368
X7.0279Y-5.8868
X7.0279Y-6.6368
X7.7759Y-3.5187
X7.7759Y-4.2687
X7.7759Y-5.0187
X7.7759Y-5.7687
X7.7759Y-6.5187
X8.5239Y-3.6368
X8.5239Y-4.3868
X8.5239Y-5.1368
X8.5239Y-5.8868
X8.5239Y-6.6368
X9.2719Y-3.7549
X9.2719Y-4.5049
X9.2719Y-5.2549
X9.2719Y-6.0049
T0
M30
