%TF.GenerationSoftware,KiCad,Pcbnew,7.0.2*%
%TF.CreationDate,2023-04-26T23:00:13+02:00*%
%TF.ProjectId,phoenix-no-controller,70686f65-6e69-4782-9d6e-6f2d636f6e74,v1.0.0*%
%TF.SameCoordinates,Original*%
%TF.FileFunction,Legend,Top*%
%TF.FilePolarity,Positive*%
%FSLAX46Y46*%
G04 Gerber Fmt 4.6, Leading zero omitted, Abs format (unit mm)*
G04 Created by KiCad (PCBNEW 7.0.2) date 2023-04-26 23:00:13*
%MOMM*%
%LPD*%
G01*
G04 APERTURE LIST*
%ADD10C,0.150000*%
%ADD11C,0.120000*%
G04 APERTURE END LIST*
D10*
X251220095Y-98680475D02*
X250420095Y-98680475D01*
X250420095Y-98680475D02*
X250420095Y-98375713D01*
X250420095Y-98375713D02*
X250458190Y-98299523D01*
X250458190Y-98299523D02*
X250496285Y-98261428D01*
X250496285Y-98261428D02*
X250572476Y-98223332D01*
X250572476Y-98223332D02*
X250686761Y-98223332D01*
X250686761Y-98223332D02*
X250762952Y-98261428D01*
X250762952Y-98261428D02*
X250801047Y-98299523D01*
X250801047Y-98299523D02*
X250839142Y-98375713D01*
X250839142Y-98375713D02*
X250839142Y-98680475D01*
X250686761Y-97537618D02*
X251220095Y-97537618D01*
X250382000Y-97728094D02*
X250953428Y-97918571D01*
X250953428Y-97918571D02*
X250953428Y-97423332D01*
X208138095Y-176871047D02*
X207871429Y-176871047D01*
X207871429Y-177290095D02*
X207871429Y-176490095D01*
X207871429Y-176490095D02*
X208252381Y-176490095D01*
X208861905Y-177252000D02*
X208785714Y-177290095D01*
X208785714Y-177290095D02*
X208633333Y-177290095D01*
X208633333Y-177290095D02*
X208557143Y-177252000D01*
X208557143Y-177252000D02*
X208519047Y-177175809D01*
X208519047Y-177175809D02*
X208519047Y-176871047D01*
X208519047Y-176871047D02*
X208557143Y-176794857D01*
X208557143Y-176794857D02*
X208633333Y-176756761D01*
X208633333Y-176756761D02*
X208785714Y-176756761D01*
X208785714Y-176756761D02*
X208861905Y-176794857D01*
X208861905Y-176794857D02*
X208900000Y-176871047D01*
X208900000Y-176871047D02*
X208900000Y-176947238D01*
X208900000Y-176947238D02*
X208519047Y-177023428D01*
X209242857Y-176756761D02*
X209242857Y-177290095D01*
X209242857Y-176832952D02*
X209280952Y-176794857D01*
X209280952Y-176794857D02*
X209357142Y-176756761D01*
X209357142Y-176756761D02*
X209471428Y-176756761D01*
X209471428Y-176756761D02*
X209547619Y-176794857D01*
X209547619Y-176794857D02*
X209585714Y-176871047D01*
X209585714Y-176871047D02*
X209585714Y-177290095D01*
X209966667Y-177290095D02*
X209966667Y-176756761D01*
X209966667Y-176490095D02*
X209928571Y-176528190D01*
X209928571Y-176528190D02*
X209966667Y-176566285D01*
X209966667Y-176566285D02*
X210004762Y-176528190D01*
X210004762Y-176528190D02*
X209966667Y-176490095D01*
X209966667Y-176490095D02*
X209966667Y-176566285D01*
X210271428Y-177290095D02*
X210690476Y-176756761D01*
X210271428Y-176756761D02*
X210690476Y-177290095D01*
X212023809Y-177290095D02*
X211566666Y-177290095D01*
X211795238Y-177290095D02*
X211795238Y-176490095D01*
X211795238Y-176490095D02*
X211719047Y-176604380D01*
X211719047Y-176604380D02*
X211642857Y-176680571D01*
X211642857Y-176680571D02*
X211566666Y-176718666D01*
X212366667Y-177213904D02*
X212404762Y-177252000D01*
X212404762Y-177252000D02*
X212366667Y-177290095D01*
X212366667Y-177290095D02*
X212328571Y-177252000D01*
X212328571Y-177252000D02*
X212366667Y-177213904D01*
X212366667Y-177213904D02*
X212366667Y-177290095D01*
X212900000Y-176490095D02*
X212976190Y-176490095D01*
X212976190Y-176490095D02*
X213052381Y-176528190D01*
X213052381Y-176528190D02*
X213090476Y-176566285D01*
X213090476Y-176566285D02*
X213128571Y-176642476D01*
X213128571Y-176642476D02*
X213166666Y-176794857D01*
X213166666Y-176794857D02*
X213166666Y-176985333D01*
X213166666Y-176985333D02*
X213128571Y-177137714D01*
X213128571Y-177137714D02*
X213090476Y-177213904D01*
X213090476Y-177213904D02*
X213052381Y-177252000D01*
X213052381Y-177252000D02*
X212976190Y-177290095D01*
X212976190Y-177290095D02*
X212900000Y-177290095D01*
X212900000Y-177290095D02*
X212823809Y-177252000D01*
X212823809Y-177252000D02*
X212785714Y-177213904D01*
X212785714Y-177213904D02*
X212747619Y-177137714D01*
X212747619Y-177137714D02*
X212709523Y-176985333D01*
X212709523Y-176985333D02*
X212709523Y-176794857D01*
X212709523Y-176794857D02*
X212747619Y-176642476D01*
X212747619Y-176642476D02*
X212785714Y-176566285D01*
X212785714Y-176566285D02*
X212823809Y-176528190D01*
X212823809Y-176528190D02*
X212900000Y-176490095D01*
X251180095Y-123913332D02*
X250799142Y-124179999D01*
X251180095Y-124370475D02*
X250380095Y-124370475D01*
X250380095Y-124370475D02*
X250380095Y-124065713D01*
X250380095Y-124065713D02*
X250418190Y-123989523D01*
X250418190Y-123989523D02*
X250456285Y-123951428D01*
X250456285Y-123951428D02*
X250532476Y-123913332D01*
X250532476Y-123913332D02*
X250646761Y-123913332D01*
X250646761Y-123913332D02*
X250722952Y-123951428D01*
X250722952Y-123951428D02*
X250761047Y-123989523D01*
X250761047Y-123989523D02*
X250799142Y-124065713D01*
X250799142Y-124065713D02*
X250799142Y-124370475D01*
X250380095Y-123189523D02*
X250380095Y-123570475D01*
X250380095Y-123570475D02*
X250761047Y-123608571D01*
X250761047Y-123608571D02*
X250722952Y-123570475D01*
X250722952Y-123570475D02*
X250684857Y-123494285D01*
X250684857Y-123494285D02*
X250684857Y-123303809D01*
X250684857Y-123303809D02*
X250722952Y-123227618D01*
X250722952Y-123227618D02*
X250761047Y-123189523D01*
X250761047Y-123189523D02*
X250837238Y-123151428D01*
X250837238Y-123151428D02*
X251027714Y-123151428D01*
X251027714Y-123151428D02*
X251103904Y-123189523D01*
X251103904Y-123189523D02*
X251142000Y-123227618D01*
X251142000Y-123227618D02*
X251180095Y-123303809D01*
X251180095Y-123303809D02*
X251180095Y-123494285D01*
X251180095Y-123494285D02*
X251142000Y-123570475D01*
X251142000Y-123570475D02*
X251103904Y-123608571D01*
X251190095Y-90990475D02*
X250390095Y-90990475D01*
X250390095Y-90990475D02*
X250390095Y-90685713D01*
X250390095Y-90685713D02*
X250428190Y-90609523D01*
X250428190Y-90609523D02*
X250466285Y-90571428D01*
X250466285Y-90571428D02*
X250542476Y-90533332D01*
X250542476Y-90533332D02*
X250656761Y-90533332D01*
X250656761Y-90533332D02*
X250732952Y-90571428D01*
X250732952Y-90571428D02*
X250771047Y-90609523D01*
X250771047Y-90609523D02*
X250809142Y-90685713D01*
X250809142Y-90685713D02*
X250809142Y-90990475D01*
X251190095Y-89771428D02*
X251190095Y-90228571D01*
X251190095Y-89999999D02*
X250390095Y-89999999D01*
X250390095Y-89999999D02*
X250504380Y-90076190D01*
X250504380Y-90076190D02*
X250580571Y-90152380D01*
X250580571Y-90152380D02*
X250618666Y-90228571D01*
X251180095Y-113713332D02*
X250799142Y-113979999D01*
X251180095Y-114170475D02*
X250380095Y-114170475D01*
X250380095Y-114170475D02*
X250380095Y-113865713D01*
X250380095Y-113865713D02*
X250418190Y-113789523D01*
X250418190Y-113789523D02*
X250456285Y-113751428D01*
X250456285Y-113751428D02*
X250532476Y-113713332D01*
X250532476Y-113713332D02*
X250646761Y-113713332D01*
X250646761Y-113713332D02*
X250722952Y-113751428D01*
X250722952Y-113751428D02*
X250761047Y-113789523D01*
X250761047Y-113789523D02*
X250799142Y-113865713D01*
X250799142Y-113865713D02*
X250799142Y-114170475D01*
X251180095Y-112951428D02*
X251180095Y-113408571D01*
X251180095Y-113179999D02*
X250380095Y-113179999D01*
X250380095Y-113179999D02*
X250494380Y-113256190D01*
X250494380Y-113256190D02*
X250570571Y-113332380D01*
X250570571Y-113332380D02*
X250608666Y-113408571D01*
X250420095Y-137946666D02*
X251220095Y-137679999D01*
X251220095Y-137679999D02*
X250420095Y-137413333D01*
X251143904Y-136689523D02*
X251182000Y-136727619D01*
X251182000Y-136727619D02*
X251220095Y-136841904D01*
X251220095Y-136841904D02*
X251220095Y-136918095D01*
X251220095Y-136918095D02*
X251182000Y-137032381D01*
X251182000Y-137032381D02*
X251105809Y-137108571D01*
X251105809Y-137108571D02*
X251029619Y-137146666D01*
X251029619Y-137146666D02*
X250877238Y-137184762D01*
X250877238Y-137184762D02*
X250762952Y-137184762D01*
X250762952Y-137184762D02*
X250610571Y-137146666D01*
X250610571Y-137146666D02*
X250534380Y-137108571D01*
X250534380Y-137108571D02*
X250458190Y-137032381D01*
X250458190Y-137032381D02*
X250420095Y-136918095D01*
X250420095Y-136918095D02*
X250420095Y-136841904D01*
X250420095Y-136841904D02*
X250458190Y-136727619D01*
X250458190Y-136727619D02*
X250496285Y-136689523D01*
X251143904Y-135889523D02*
X251182000Y-135927619D01*
X251182000Y-135927619D02*
X251220095Y-136041904D01*
X251220095Y-136041904D02*
X251220095Y-136118095D01*
X251220095Y-136118095D02*
X251182000Y-136232381D01*
X251182000Y-136232381D02*
X251105809Y-136308571D01*
X251105809Y-136308571D02*
X251029619Y-136346666D01*
X251029619Y-136346666D02*
X250877238Y-136384762D01*
X250877238Y-136384762D02*
X250762952Y-136384762D01*
X250762952Y-136384762D02*
X250610571Y-136346666D01*
X250610571Y-136346666D02*
X250534380Y-136308571D01*
X250534380Y-136308571D02*
X250458190Y-136232381D01*
X250458190Y-136232381D02*
X250420095Y-136118095D01*
X250420095Y-136118095D02*
X250420095Y-136041904D01*
X250420095Y-136041904D02*
X250458190Y-135927619D01*
X250458190Y-135927619D02*
X250496285Y-135889523D01*
X251250095Y-148680475D02*
X250450095Y-148680475D01*
X250450095Y-148680475D02*
X250450095Y-148375713D01*
X250450095Y-148375713D02*
X250488190Y-148299523D01*
X250488190Y-148299523D02*
X250526285Y-148261428D01*
X250526285Y-148261428D02*
X250602476Y-148223332D01*
X250602476Y-148223332D02*
X250716761Y-148223332D01*
X250716761Y-148223332D02*
X250792952Y-148261428D01*
X250792952Y-148261428D02*
X250831047Y-148299523D01*
X250831047Y-148299523D02*
X250869142Y-148375713D01*
X250869142Y-148375713D02*
X250869142Y-148680475D01*
X250716761Y-147537618D02*
X251250095Y-147537618D01*
X250412000Y-147728094D02*
X250983428Y-147918571D01*
X250983428Y-147918571D02*
X250983428Y-147423332D01*
X251190095Y-93610475D02*
X250390095Y-93610475D01*
X250390095Y-93610475D02*
X250390095Y-93305713D01*
X250390095Y-93305713D02*
X250428190Y-93229523D01*
X250428190Y-93229523D02*
X250466285Y-93191428D01*
X250466285Y-93191428D02*
X250542476Y-93153332D01*
X250542476Y-93153332D02*
X250656761Y-93153332D01*
X250656761Y-93153332D02*
X250732952Y-93191428D01*
X250732952Y-93191428D02*
X250771047Y-93229523D01*
X250771047Y-93229523D02*
X250809142Y-93305713D01*
X250809142Y-93305713D02*
X250809142Y-93610475D01*
X250466285Y-92848571D02*
X250428190Y-92810475D01*
X250428190Y-92810475D02*
X250390095Y-92734285D01*
X250390095Y-92734285D02*
X250390095Y-92543809D01*
X250390095Y-92543809D02*
X250428190Y-92467618D01*
X250428190Y-92467618D02*
X250466285Y-92429523D01*
X250466285Y-92429523D02*
X250542476Y-92391428D01*
X250542476Y-92391428D02*
X250618666Y-92391428D01*
X250618666Y-92391428D02*
X250732952Y-92429523D01*
X250732952Y-92429523D02*
X251190095Y-92886666D01*
X251190095Y-92886666D02*
X251190095Y-92391428D01*
X251240095Y-132214285D02*
X251240095Y-132595237D01*
X251240095Y-132595237D02*
X250440095Y-132595237D01*
X250821047Y-131947618D02*
X250821047Y-131680952D01*
X251240095Y-131566666D02*
X251240095Y-131947618D01*
X251240095Y-131947618D02*
X250440095Y-131947618D01*
X250440095Y-131947618D02*
X250440095Y-131566666D01*
X251240095Y-131223808D02*
X250440095Y-131223808D01*
X250440095Y-131223808D02*
X250440095Y-131033332D01*
X250440095Y-131033332D02*
X250478190Y-130919046D01*
X250478190Y-130919046D02*
X250554380Y-130842856D01*
X250554380Y-130842856D02*
X250630571Y-130804761D01*
X250630571Y-130804761D02*
X250782952Y-130766665D01*
X250782952Y-130766665D02*
X250897238Y-130766665D01*
X250897238Y-130766665D02*
X251049619Y-130804761D01*
X251049619Y-130804761D02*
X251125809Y-130842856D01*
X251125809Y-130842856D02*
X251202000Y-130919046D01*
X251202000Y-130919046D02*
X251240095Y-131033332D01*
X251240095Y-131033332D02*
X251240095Y-131223808D01*
X251220095Y-96110475D02*
X250420095Y-96110475D01*
X250420095Y-96110475D02*
X250420095Y-95805713D01*
X250420095Y-95805713D02*
X250458190Y-95729523D01*
X250458190Y-95729523D02*
X250496285Y-95691428D01*
X250496285Y-95691428D02*
X250572476Y-95653332D01*
X250572476Y-95653332D02*
X250686761Y-95653332D01*
X250686761Y-95653332D02*
X250762952Y-95691428D01*
X250762952Y-95691428D02*
X250801047Y-95729523D01*
X250801047Y-95729523D02*
X250839142Y-95805713D01*
X250839142Y-95805713D02*
X250839142Y-96110475D01*
X250420095Y-95386666D02*
X250420095Y-94891428D01*
X250420095Y-94891428D02*
X250724857Y-95158094D01*
X250724857Y-95158094D02*
X250724857Y-95043809D01*
X250724857Y-95043809D02*
X250762952Y-94967618D01*
X250762952Y-94967618D02*
X250801047Y-94929523D01*
X250801047Y-94929523D02*
X250877238Y-94891428D01*
X250877238Y-94891428D02*
X251067714Y-94891428D01*
X251067714Y-94891428D02*
X251143904Y-94929523D01*
X251143904Y-94929523D02*
X251182000Y-94967618D01*
X251182000Y-94967618D02*
X251220095Y-95043809D01*
X251220095Y-95043809D02*
X251220095Y-95272380D01*
X251220095Y-95272380D02*
X251182000Y-95348571D01*
X251182000Y-95348571D02*
X251143904Y-95386666D01*
X251180095Y-111093332D02*
X250799142Y-111359999D01*
X251180095Y-111550475D02*
X250380095Y-111550475D01*
X250380095Y-111550475D02*
X250380095Y-111245713D01*
X250380095Y-111245713D02*
X250418190Y-111169523D01*
X250418190Y-111169523D02*
X250456285Y-111131428D01*
X250456285Y-111131428D02*
X250532476Y-111093332D01*
X250532476Y-111093332D02*
X250646761Y-111093332D01*
X250646761Y-111093332D02*
X250722952Y-111131428D01*
X250722952Y-111131428D02*
X250761047Y-111169523D01*
X250761047Y-111169523D02*
X250799142Y-111245713D01*
X250799142Y-111245713D02*
X250799142Y-111550475D01*
X250380095Y-110598094D02*
X250380095Y-110521904D01*
X250380095Y-110521904D02*
X250418190Y-110445713D01*
X250418190Y-110445713D02*
X250456285Y-110407618D01*
X250456285Y-110407618D02*
X250532476Y-110369523D01*
X250532476Y-110369523D02*
X250684857Y-110331428D01*
X250684857Y-110331428D02*
X250875333Y-110331428D01*
X250875333Y-110331428D02*
X251027714Y-110369523D01*
X251027714Y-110369523D02*
X251103904Y-110407618D01*
X251103904Y-110407618D02*
X251142000Y-110445713D01*
X251142000Y-110445713D02*
X251180095Y-110521904D01*
X251180095Y-110521904D02*
X251180095Y-110598094D01*
X251180095Y-110598094D02*
X251142000Y-110674285D01*
X251142000Y-110674285D02*
X251103904Y-110712380D01*
X251103904Y-110712380D02*
X251027714Y-110750475D01*
X251027714Y-110750475D02*
X250875333Y-110788571D01*
X250875333Y-110788571D02*
X250684857Y-110788571D01*
X250684857Y-110788571D02*
X250532476Y-110750475D01*
X250532476Y-110750475D02*
X250456285Y-110712380D01*
X250456285Y-110712380D02*
X250418190Y-110674285D01*
X250418190Y-110674285D02*
X250380095Y-110598094D01*
X251270095Y-153710475D02*
X250470095Y-153710475D01*
X250470095Y-153710475D02*
X250470095Y-153405713D01*
X250470095Y-153405713D02*
X250508190Y-153329523D01*
X250508190Y-153329523D02*
X250546285Y-153291428D01*
X250546285Y-153291428D02*
X250622476Y-153253332D01*
X250622476Y-153253332D02*
X250736761Y-153253332D01*
X250736761Y-153253332D02*
X250812952Y-153291428D01*
X250812952Y-153291428D02*
X250851047Y-153329523D01*
X250851047Y-153329523D02*
X250889142Y-153405713D01*
X250889142Y-153405713D02*
X250889142Y-153710475D01*
X250470095Y-152567618D02*
X250470095Y-152719999D01*
X250470095Y-152719999D02*
X250508190Y-152796190D01*
X250508190Y-152796190D02*
X250546285Y-152834285D01*
X250546285Y-152834285D02*
X250660571Y-152910475D01*
X250660571Y-152910475D02*
X250812952Y-152948571D01*
X250812952Y-152948571D02*
X251117714Y-152948571D01*
X251117714Y-152948571D02*
X251193904Y-152910475D01*
X251193904Y-152910475D02*
X251232000Y-152872380D01*
X251232000Y-152872380D02*
X251270095Y-152796190D01*
X251270095Y-152796190D02*
X251270095Y-152643809D01*
X251270095Y-152643809D02*
X251232000Y-152567618D01*
X251232000Y-152567618D02*
X251193904Y-152529523D01*
X251193904Y-152529523D02*
X251117714Y-152491428D01*
X251117714Y-152491428D02*
X250927238Y-152491428D01*
X250927238Y-152491428D02*
X250851047Y-152529523D01*
X250851047Y-152529523D02*
X250812952Y-152567618D01*
X250812952Y-152567618D02*
X250774857Y-152643809D01*
X250774857Y-152643809D02*
X250774857Y-152796190D01*
X250774857Y-152796190D02*
X250812952Y-152872380D01*
X250812952Y-152872380D02*
X250851047Y-152910475D01*
X250851047Y-152910475D02*
X250927238Y-152948571D01*
X251260095Y-143143332D02*
X250879142Y-143409999D01*
X251260095Y-143600475D02*
X250460095Y-143600475D01*
X250460095Y-143600475D02*
X250460095Y-143295713D01*
X250460095Y-143295713D02*
X250498190Y-143219523D01*
X250498190Y-143219523D02*
X250536285Y-143181428D01*
X250536285Y-143181428D02*
X250612476Y-143143332D01*
X250612476Y-143143332D02*
X250726761Y-143143332D01*
X250726761Y-143143332D02*
X250802952Y-143181428D01*
X250802952Y-143181428D02*
X250841047Y-143219523D01*
X250841047Y-143219523D02*
X250879142Y-143295713D01*
X250879142Y-143295713D02*
X250879142Y-143600475D01*
X250460095Y-142419523D02*
X250460095Y-142800475D01*
X250460095Y-142800475D02*
X250841047Y-142838571D01*
X250841047Y-142838571D02*
X250802952Y-142800475D01*
X250802952Y-142800475D02*
X250764857Y-142724285D01*
X250764857Y-142724285D02*
X250764857Y-142533809D01*
X250764857Y-142533809D02*
X250802952Y-142457618D01*
X250802952Y-142457618D02*
X250841047Y-142419523D01*
X250841047Y-142419523D02*
X250917238Y-142381428D01*
X250917238Y-142381428D02*
X251107714Y-142381428D01*
X251107714Y-142381428D02*
X251183904Y-142419523D01*
X251183904Y-142419523D02*
X251222000Y-142457618D01*
X251222000Y-142457618D02*
X251260095Y-142533809D01*
X251260095Y-142533809D02*
X251260095Y-142724285D01*
X251260095Y-142724285D02*
X251222000Y-142800475D01*
X251222000Y-142800475D02*
X251183904Y-142838571D01*
X251240095Y-151200475D02*
X250440095Y-151200475D01*
X250440095Y-151200475D02*
X250440095Y-150895713D01*
X250440095Y-150895713D02*
X250478190Y-150819523D01*
X250478190Y-150819523D02*
X250516285Y-150781428D01*
X250516285Y-150781428D02*
X250592476Y-150743332D01*
X250592476Y-150743332D02*
X250706761Y-150743332D01*
X250706761Y-150743332D02*
X250782952Y-150781428D01*
X250782952Y-150781428D02*
X250821047Y-150819523D01*
X250821047Y-150819523D02*
X250859142Y-150895713D01*
X250859142Y-150895713D02*
X250859142Y-151200475D01*
X250440095Y-150019523D02*
X250440095Y-150400475D01*
X250440095Y-150400475D02*
X250821047Y-150438571D01*
X250821047Y-150438571D02*
X250782952Y-150400475D01*
X250782952Y-150400475D02*
X250744857Y-150324285D01*
X250744857Y-150324285D02*
X250744857Y-150133809D01*
X250744857Y-150133809D02*
X250782952Y-150057618D01*
X250782952Y-150057618D02*
X250821047Y-150019523D01*
X250821047Y-150019523D02*
X250897238Y-149981428D01*
X250897238Y-149981428D02*
X251087714Y-149981428D01*
X251087714Y-149981428D02*
X251163904Y-150019523D01*
X251163904Y-150019523D02*
X251202000Y-150057618D01*
X251202000Y-150057618D02*
X251240095Y-150133809D01*
X251240095Y-150133809D02*
X251240095Y-150324285D01*
X251240095Y-150324285D02*
X251202000Y-150400475D01*
X251202000Y-150400475D02*
X251163904Y-150438571D01*
X251210095Y-118783332D02*
X250829142Y-119049999D01*
X251210095Y-119240475D02*
X250410095Y-119240475D01*
X250410095Y-119240475D02*
X250410095Y-118935713D01*
X250410095Y-118935713D02*
X250448190Y-118859523D01*
X250448190Y-118859523D02*
X250486285Y-118821428D01*
X250486285Y-118821428D02*
X250562476Y-118783332D01*
X250562476Y-118783332D02*
X250676761Y-118783332D01*
X250676761Y-118783332D02*
X250752952Y-118821428D01*
X250752952Y-118821428D02*
X250791047Y-118859523D01*
X250791047Y-118859523D02*
X250829142Y-118935713D01*
X250829142Y-118935713D02*
X250829142Y-119240475D01*
X250410095Y-118516666D02*
X250410095Y-118021428D01*
X250410095Y-118021428D02*
X250714857Y-118288094D01*
X250714857Y-118288094D02*
X250714857Y-118173809D01*
X250714857Y-118173809D02*
X250752952Y-118097618D01*
X250752952Y-118097618D02*
X250791047Y-118059523D01*
X250791047Y-118059523D02*
X250867238Y-118021428D01*
X250867238Y-118021428D02*
X251057714Y-118021428D01*
X251057714Y-118021428D02*
X251133904Y-118059523D01*
X251133904Y-118059523D02*
X251172000Y-118097618D01*
X251172000Y-118097618D02*
X251210095Y-118173809D01*
X251210095Y-118173809D02*
X251210095Y-118402380D01*
X251210095Y-118402380D02*
X251172000Y-118478571D01*
X251172000Y-118478571D02*
X251133904Y-118516666D01*
X251220095Y-101170475D02*
X250420095Y-101170475D01*
X250420095Y-101170475D02*
X250420095Y-100865713D01*
X250420095Y-100865713D02*
X250458190Y-100789523D01*
X250458190Y-100789523D02*
X250496285Y-100751428D01*
X250496285Y-100751428D02*
X250572476Y-100713332D01*
X250572476Y-100713332D02*
X250686761Y-100713332D01*
X250686761Y-100713332D02*
X250762952Y-100751428D01*
X250762952Y-100751428D02*
X250801047Y-100789523D01*
X250801047Y-100789523D02*
X250839142Y-100865713D01*
X250839142Y-100865713D02*
X250839142Y-101170475D01*
X250420095Y-99989523D02*
X250420095Y-100370475D01*
X250420095Y-100370475D02*
X250801047Y-100408571D01*
X250801047Y-100408571D02*
X250762952Y-100370475D01*
X250762952Y-100370475D02*
X250724857Y-100294285D01*
X250724857Y-100294285D02*
X250724857Y-100103809D01*
X250724857Y-100103809D02*
X250762952Y-100027618D01*
X250762952Y-100027618D02*
X250801047Y-99989523D01*
X250801047Y-99989523D02*
X250877238Y-99951428D01*
X250877238Y-99951428D02*
X251067714Y-99951428D01*
X251067714Y-99951428D02*
X251143904Y-99989523D01*
X251143904Y-99989523D02*
X251182000Y-100027618D01*
X251182000Y-100027618D02*
X251220095Y-100103809D01*
X251220095Y-100103809D02*
X251220095Y-100294285D01*
X251220095Y-100294285D02*
X251182000Y-100370475D01*
X251182000Y-100370475D02*
X251143904Y-100408571D01*
X251220095Y-146190475D02*
X250420095Y-146190475D01*
X250420095Y-146190475D02*
X250420095Y-145885713D01*
X250420095Y-145885713D02*
X250458190Y-145809523D01*
X250458190Y-145809523D02*
X250496285Y-145771428D01*
X250496285Y-145771428D02*
X250572476Y-145733332D01*
X250572476Y-145733332D02*
X250686761Y-145733332D01*
X250686761Y-145733332D02*
X250762952Y-145771428D01*
X250762952Y-145771428D02*
X250801047Y-145809523D01*
X250801047Y-145809523D02*
X250839142Y-145885713D01*
X250839142Y-145885713D02*
X250839142Y-146190475D01*
X250420095Y-145466666D02*
X250420095Y-144971428D01*
X250420095Y-144971428D02*
X250724857Y-145238094D01*
X250724857Y-145238094D02*
X250724857Y-145123809D01*
X250724857Y-145123809D02*
X250762952Y-145047618D01*
X250762952Y-145047618D02*
X250801047Y-145009523D01*
X250801047Y-145009523D02*
X250877238Y-144971428D01*
X250877238Y-144971428D02*
X251067714Y-144971428D01*
X251067714Y-144971428D02*
X251143904Y-145009523D01*
X251143904Y-145009523D02*
X251182000Y-145047618D01*
X251182000Y-145047618D02*
X251220095Y-145123809D01*
X251220095Y-145123809D02*
X251220095Y-145352380D01*
X251220095Y-145352380D02*
X251182000Y-145428571D01*
X251182000Y-145428571D02*
X251143904Y-145466666D01*
X251210095Y-116213332D02*
X250829142Y-116479999D01*
X251210095Y-116670475D02*
X250410095Y-116670475D01*
X250410095Y-116670475D02*
X250410095Y-116365713D01*
X250410095Y-116365713D02*
X250448190Y-116289523D01*
X250448190Y-116289523D02*
X250486285Y-116251428D01*
X250486285Y-116251428D02*
X250562476Y-116213332D01*
X250562476Y-116213332D02*
X250676761Y-116213332D01*
X250676761Y-116213332D02*
X250752952Y-116251428D01*
X250752952Y-116251428D02*
X250791047Y-116289523D01*
X250791047Y-116289523D02*
X250829142Y-116365713D01*
X250829142Y-116365713D02*
X250829142Y-116670475D01*
X250486285Y-115908571D02*
X250448190Y-115870475D01*
X250448190Y-115870475D02*
X250410095Y-115794285D01*
X250410095Y-115794285D02*
X250410095Y-115603809D01*
X250410095Y-115603809D02*
X250448190Y-115527618D01*
X250448190Y-115527618D02*
X250486285Y-115489523D01*
X250486285Y-115489523D02*
X250562476Y-115451428D01*
X250562476Y-115451428D02*
X250638666Y-115451428D01*
X250638666Y-115451428D02*
X250752952Y-115489523D01*
X250752952Y-115489523D02*
X251210095Y-115946666D01*
X251210095Y-115946666D02*
X251210095Y-115451428D01*
X251210095Y-121273332D02*
X250829142Y-121539999D01*
X251210095Y-121730475D02*
X250410095Y-121730475D01*
X250410095Y-121730475D02*
X250410095Y-121425713D01*
X250410095Y-121425713D02*
X250448190Y-121349523D01*
X250448190Y-121349523D02*
X250486285Y-121311428D01*
X250486285Y-121311428D02*
X250562476Y-121273332D01*
X250562476Y-121273332D02*
X250676761Y-121273332D01*
X250676761Y-121273332D02*
X250752952Y-121311428D01*
X250752952Y-121311428D02*
X250791047Y-121349523D01*
X250791047Y-121349523D02*
X250829142Y-121425713D01*
X250829142Y-121425713D02*
X250829142Y-121730475D01*
X250676761Y-120587618D02*
X251210095Y-120587618D01*
X250372000Y-120778094D02*
X250943428Y-120968571D01*
X250943428Y-120968571D02*
X250943428Y-120473332D01*
X251190095Y-103810475D02*
X250390095Y-103810475D01*
X250390095Y-103810475D02*
X250390095Y-103505713D01*
X250390095Y-103505713D02*
X250428190Y-103429523D01*
X250428190Y-103429523D02*
X250466285Y-103391428D01*
X250466285Y-103391428D02*
X250542476Y-103353332D01*
X250542476Y-103353332D02*
X250656761Y-103353332D01*
X250656761Y-103353332D02*
X250732952Y-103391428D01*
X250732952Y-103391428D02*
X250771047Y-103429523D01*
X250771047Y-103429523D02*
X250809142Y-103505713D01*
X250809142Y-103505713D02*
X250809142Y-103810475D01*
X250390095Y-102667618D02*
X250390095Y-102819999D01*
X250390095Y-102819999D02*
X250428190Y-102896190D01*
X250428190Y-102896190D02*
X250466285Y-102934285D01*
X250466285Y-102934285D02*
X250580571Y-103010475D01*
X250580571Y-103010475D02*
X250732952Y-103048571D01*
X250732952Y-103048571D02*
X251037714Y-103048571D01*
X251037714Y-103048571D02*
X251113904Y-103010475D01*
X251113904Y-103010475D02*
X251152000Y-102972380D01*
X251152000Y-102972380D02*
X251190095Y-102896190D01*
X251190095Y-102896190D02*
X251190095Y-102743809D01*
X251190095Y-102743809D02*
X251152000Y-102667618D01*
X251152000Y-102667618D02*
X251113904Y-102629523D01*
X251113904Y-102629523D02*
X251037714Y-102591428D01*
X251037714Y-102591428D02*
X250847238Y-102591428D01*
X250847238Y-102591428D02*
X250771047Y-102629523D01*
X250771047Y-102629523D02*
X250732952Y-102667618D01*
X250732952Y-102667618D02*
X250694857Y-102743809D01*
X250694857Y-102743809D02*
X250694857Y-102896190D01*
X250694857Y-102896190D02*
X250732952Y-102972380D01*
X250732952Y-102972380D02*
X250771047Y-103010475D01*
X250771047Y-103010475D02*
X250847238Y-103048571D01*
X250468190Y-134929523D02*
X250430095Y-135005713D01*
X250430095Y-135005713D02*
X250430095Y-135119999D01*
X250430095Y-135119999D02*
X250468190Y-135234285D01*
X250468190Y-135234285D02*
X250544380Y-135310475D01*
X250544380Y-135310475D02*
X250620571Y-135348570D01*
X250620571Y-135348570D02*
X250772952Y-135386666D01*
X250772952Y-135386666D02*
X250887238Y-135386666D01*
X250887238Y-135386666D02*
X251039619Y-135348570D01*
X251039619Y-135348570D02*
X251115809Y-135310475D01*
X251115809Y-135310475D02*
X251192000Y-135234285D01*
X251192000Y-135234285D02*
X251230095Y-135119999D01*
X251230095Y-135119999D02*
X251230095Y-135043808D01*
X251230095Y-135043808D02*
X251192000Y-134929523D01*
X251192000Y-134929523D02*
X251153904Y-134891427D01*
X251153904Y-134891427D02*
X250887238Y-134891427D01*
X250887238Y-134891427D02*
X250887238Y-135043808D01*
X251230095Y-134548570D02*
X250430095Y-134548570D01*
X250430095Y-134548570D02*
X251230095Y-134091427D01*
X251230095Y-134091427D02*
X250430095Y-134091427D01*
X251230095Y-133710475D02*
X250430095Y-133710475D01*
X250430095Y-133710475D02*
X250430095Y-133519999D01*
X250430095Y-133519999D02*
X250468190Y-133405713D01*
X250468190Y-133405713D02*
X250544380Y-133329523D01*
X250544380Y-133329523D02*
X250620571Y-133291428D01*
X250620571Y-133291428D02*
X250772952Y-133253332D01*
X250772952Y-133253332D02*
X250887238Y-133253332D01*
X250887238Y-133253332D02*
X251039619Y-133291428D01*
X251039619Y-133291428D02*
X251115809Y-133329523D01*
X251115809Y-133329523D02*
X251192000Y-133405713D01*
X251192000Y-133405713D02*
X251230095Y-133519999D01*
X251230095Y-133519999D02*
X251230095Y-133710475D01*
%TO.C,*%
D11*
X247147500Y-109747500D02*
X248477500Y-109747500D01*
X247147500Y-111077500D02*
X247147500Y-109747500D01*
X247147500Y-112347500D02*
X247147500Y-125107500D01*
X247147500Y-112347500D02*
X249807500Y-112347500D01*
X247147500Y-125107500D02*
X249807500Y-125107500D01*
X249807500Y-112347500D02*
X249807500Y-125107500D01*
X247097500Y-130442500D02*
X248427500Y-130442500D01*
X247097500Y-131772500D02*
X247097500Y-130442500D01*
X247097500Y-133042500D02*
X247097500Y-138182500D01*
X247097500Y-133042500D02*
X249757500Y-133042500D01*
X247097500Y-138182500D02*
X249757500Y-138182500D01*
X249757500Y-133042500D02*
X249757500Y-138182500D01*
X247117500Y-89167500D02*
X248447500Y-89167500D01*
X247117500Y-90497500D02*
X247117500Y-89167500D01*
X247117500Y-91767500D02*
X247117500Y-104527500D01*
X247117500Y-91767500D02*
X249777500Y-91767500D01*
X247117500Y-104527500D02*
X249777500Y-104527500D01*
X249777500Y-91767500D02*
X249777500Y-104527500D01*
X247117500Y-141692500D02*
X248447500Y-141692500D01*
X247117500Y-143022500D02*
X247117500Y-141692500D01*
X247117500Y-144292500D02*
X247117500Y-154512500D01*
X247117500Y-144292500D02*
X249777500Y-144292500D01*
X247117500Y-154512500D02*
X249777500Y-154512500D01*
X249777500Y-144292500D02*
X249777500Y-154512500D01*
D10*
%TO.C,D25*%
X230200000Y-103630000D02*
X229300000Y-102930000D01*
X230200000Y-102930000D02*
X230200000Y-104330000D01*
X229300000Y-104330000D02*
X230200000Y-103630000D01*
X229300000Y-102930000D02*
X229300000Y-104330000D01*
X191940000Y-138310000D02*
X191040000Y-137610000D01*
X191940000Y-137610000D02*
X191940000Y-139010000D01*
X191040000Y-139010000D02*
X191940000Y-138310000D01*
X191040000Y-137610000D02*
X191040000Y-139010000D01*
X211020000Y-103200000D02*
X210120000Y-102500000D01*
X211020000Y-102500000D02*
X211020000Y-103900000D01*
X210120000Y-103900000D02*
X211020000Y-103200000D01*
X210120000Y-102500000D02*
X210120000Y-103900000D01*
X154250000Y-151260000D02*
X153350000Y-150560000D01*
X154250000Y-150560000D02*
X154250000Y-151960000D01*
X153350000Y-151960000D02*
X154250000Y-151260000D01*
X153350000Y-150560000D02*
X153350000Y-151960000D01*
X173020000Y-141230000D02*
X172120000Y-140530000D01*
X173020000Y-140530000D02*
X173020000Y-141930000D01*
X172120000Y-141930000D02*
X173020000Y-141230000D01*
X172120000Y-140530000D02*
X172120000Y-141930000D01*
X191930000Y-100240000D02*
X191030000Y-99540000D01*
X191930000Y-99540000D02*
X191930000Y-100940000D01*
X191030000Y-100940000D02*
X191930000Y-100240000D01*
X191030000Y-99540000D02*
X191030000Y-100940000D01*
X153910000Y-110730000D02*
X153010000Y-110030000D01*
X153910000Y-110030000D02*
X153910000Y-111430000D01*
X153010000Y-111430000D02*
X153910000Y-110730000D01*
X153010000Y-110030000D02*
X153010000Y-111430000D01*
X229850000Y-144030000D02*
X228950000Y-143330000D01*
X229850000Y-143330000D02*
X229850000Y-144730000D01*
X228950000Y-144730000D02*
X229850000Y-144030000D01*
X228950000Y-143330000D02*
X228950000Y-144730000D01*
X154170000Y-170310000D02*
X153270000Y-169610000D01*
X154170000Y-169610000D02*
X154170000Y-171010000D01*
X153270000Y-171010000D02*
X154170000Y-170310000D01*
X153270000Y-169610000D02*
X153270000Y-171010000D01*
X210990000Y-160280000D02*
X210090000Y-159580000D01*
X210990000Y-159580000D02*
X210990000Y-160980000D01*
X210090000Y-160980000D02*
X210990000Y-160280000D01*
X210090000Y-159580000D02*
X210090000Y-160980000D01*
X173080000Y-100710000D02*
X172180000Y-100010000D01*
X173080000Y-100010000D02*
X173080000Y-101410000D01*
X172180000Y-101410000D02*
X173080000Y-100710000D01*
X172180000Y-100010000D02*
X172180000Y-101410000D01*
X173200000Y-160300000D02*
X172300000Y-159600000D01*
X173200000Y-159600000D02*
X173200000Y-161000000D01*
X172300000Y-161000000D02*
X173200000Y-160300000D01*
X172300000Y-159600000D02*
X172300000Y-161000000D01*
X135160000Y-113220000D02*
X134260000Y-112520000D01*
X135160000Y-112520000D02*
X135160000Y-113920000D01*
X134260000Y-113920000D02*
X135160000Y-113220000D01*
X134260000Y-112520000D02*
X134260000Y-113920000D01*
X229860000Y-141660000D02*
X228960000Y-140960000D01*
X229860000Y-140960000D02*
X229860000Y-142360000D01*
X228960000Y-142360000D02*
X229860000Y-141660000D01*
X228960000Y-140960000D02*
X228960000Y-142360000D01*
X134870000Y-170270000D02*
X133970000Y-169570000D01*
X134870000Y-169570000D02*
X134870000Y-170970000D01*
X133970000Y-170970000D02*
X134870000Y-170270000D01*
X133970000Y-169570000D02*
X133970000Y-170970000D01*
X230020000Y-106220000D02*
X229120000Y-105520000D01*
X230020000Y-105520000D02*
X230020000Y-106920000D01*
X229120000Y-106920000D02*
X230020000Y-106220000D01*
X229120000Y-105520000D02*
X229120000Y-106920000D01*
X173030000Y-138860000D02*
X172130000Y-138160000D01*
X173030000Y-138160000D02*
X173030000Y-139560000D01*
X172130000Y-139560000D02*
X173030000Y-138860000D01*
X172130000Y-138160000D02*
X172130000Y-139560000D01*
X173060000Y-103150000D02*
X172160000Y-102450000D01*
X173060000Y-102450000D02*
X173060000Y-103850000D01*
X172160000Y-103850000D02*
X173060000Y-103150000D01*
X172160000Y-102450000D02*
X172160000Y-103850000D01*
X135180000Y-148670000D02*
X134280000Y-147970000D01*
X135180000Y-147970000D02*
X135180000Y-149370000D01*
X134280000Y-149370000D02*
X135180000Y-148670000D01*
X134280000Y-147970000D02*
X134280000Y-149370000D01*
X135260000Y-110510000D02*
X134360000Y-109810000D01*
X135260000Y-109810000D02*
X135260000Y-111210000D01*
X134360000Y-111210000D02*
X135260000Y-110510000D01*
X134360000Y-109810000D02*
X134360000Y-111210000D01*
X211070000Y-100710000D02*
X210170000Y-100010000D01*
X211070000Y-100010000D02*
X211070000Y-101410000D01*
X210170000Y-101410000D02*
X211070000Y-100710000D01*
X210170000Y-100010000D02*
X210170000Y-101410000D01*
X210930000Y-138870000D02*
X210030000Y-138170000D01*
X210930000Y-138170000D02*
X210930000Y-139570000D01*
X210030000Y-139570000D02*
X210930000Y-138870000D01*
X210030000Y-138170000D02*
X210030000Y-139570000D01*
X191950000Y-135940000D02*
X191050000Y-135240000D01*
X191950000Y-135240000D02*
X191950000Y-136640000D01*
X191050000Y-136640000D02*
X191950000Y-135940000D01*
X191050000Y-135240000D02*
X191050000Y-136640000D01*
X154310000Y-148860000D02*
X153410000Y-148160000D01*
X154310000Y-148160000D02*
X154310000Y-149560000D01*
X153410000Y-149560000D02*
X154310000Y-148860000D01*
X153410000Y-148160000D02*
X153410000Y-149560000D01*
X135140000Y-151470000D02*
X134240000Y-150770000D01*
X135140000Y-150770000D02*
X135140000Y-152170000D01*
X134240000Y-152170000D02*
X135140000Y-151470000D01*
X134240000Y-150770000D02*
X134240000Y-152170000D01*
X153870000Y-113130000D02*
X152970000Y-112430000D01*
X153870000Y-112430000D02*
X153870000Y-113830000D01*
X152970000Y-113830000D02*
X153870000Y-113130000D01*
X152970000Y-112430000D02*
X152970000Y-113830000D01*
X192230000Y-157500000D02*
X191330000Y-156800000D01*
X192230000Y-156800000D02*
X192230000Y-158200000D01*
X191330000Y-158200000D02*
X192230000Y-157500000D01*
X191330000Y-156800000D02*
X191330000Y-158200000D01*
X191880000Y-97660000D02*
X190980000Y-96960000D01*
X191880000Y-96960000D02*
X191880000Y-98360000D01*
X190980000Y-98360000D02*
X191880000Y-97660000D01*
X190980000Y-96960000D02*
X190980000Y-98360000D01*
X210920000Y-141240000D02*
X210020000Y-140540000D01*
X210920000Y-140540000D02*
X210920000Y-141940000D01*
X210020000Y-141940000D02*
X210920000Y-141240000D01*
X210020000Y-140540000D02*
X210020000Y-141940000D01*
%TD*%
M02*
