M48
; DRILL file {KiCad 7.0.2} date Wed Apr 26 22:59:47 2023
; FORMAT={-:-/ absolute / inch / decimal}
; #@! TF.CreationDate,2023-04-26T22:59:47+02:00
; #@! TF.GenerationSoftware,Kicad,Pcbnew,7.0.2
; #@! TF.FileFunction,Plated,1,2,PTH
FMAT,2
INCH
; #@! TA.AperFunction,Plated,PTH,ViaDrill
T1C0.0118
; #@! TA.AperFunction,Plated,PTH,ComponentDrill
T2C0.0157
; #@! TA.AperFunction,Plated,PTH,ComponentDrill
T3C0.0394
%
G90
G05
T1
X5.2066Y-5.3297
X5.2101Y-6.0844
X5.2109Y-4.5805
X5.2193Y-6.8276
X5.2233Y-3.8291
X5.8795Y-6.8217
X5.8807Y-3.7165
X5.8838Y-3.8439
X5.8849Y-4.5785
X5.8849Y-5.3348
X5.8849Y-6.084
X5.9566Y-5.3262
X5.9578Y-6.8325
X5.9582Y-4.5774
X5.9594Y-3.8407
X5.9594Y-6.0805
X6.6283Y-4.576
X6.6287Y-5.3256
X6.6303Y-3.8248
X6.6307Y-6.8295
X6.6354Y-6.0819
X6.6965Y-4.9331
X6.6969Y-6.4217
X6.6996Y-5.6776
X6.7134Y-4.1681
X6.715Y-3.4272
X7.374Y-6.4339
X7.3772Y-4.9358
X7.3772Y-5.6882
X7.3783Y-4.1756
X7.3787Y-4.7098
X7.385Y-3.4382
X7.4461Y-4.0685
X7.448Y-3.3185
X7.4502Y-4.8187
X7.4502Y-6.3187
X7.4506Y-5.5687
X8.1154Y-6.3224
X8.1165Y-5.5713
X8.1236Y-4.0677
X8.124Y-3.3201
X8.1283Y-4.8205
X8.1752Y-3.4402
X8.1787Y-4.9346
X8.1787Y-5.6811
X8.1835Y-6.4327
X8.2026Y-4.1868
X8.8665Y-4.9433
X8.8669Y-6.437
X8.8673Y-5.6732
X8.8705Y-3.4394
X8.8713Y-4.1882
X8.9319Y-5.0492
X8.9323Y-4.3035
X8.9378Y-5.8055
X8.9384Y-3.5549
X9.6094Y-4.8185
X9.6244Y-5.0413
X9.6256Y-4.2894
X9.6264Y-5.7945
X9.6272Y-3.5441
T2
X5.2232Y-6.7035
X5.2232Y-6.7035
X5.2339Y-5.9634
X5.2346Y-4.4575
X5.2354Y-5.8531
X5.2386Y-4.3508
X5.3571Y-6.7035
X5.3677Y-5.9634
X5.3685Y-4.4575
X5.3693Y-5.8531
X5.3724Y-4.3508
X5.9713Y-4.4539
X5.9728Y-4.3594
X5.9831Y-6.7051
X5.9862Y-5.9551
X5.9886Y-5.8606
X6.1051Y-4.4539
X6.1067Y-4.3594
X6.1169Y-6.7051
X6.1201Y-5.9551
X6.1224Y-5.8606
X6.7252Y-5.5602
X6.7256Y-5.4669
X6.7268Y-4.061
X6.7276Y-3.965
X6.7323Y-6.311
X6.8591Y-5.5602
X6.8594Y-5.4669
X6.8606Y-4.061
X6.8614Y-3.965
X6.8661Y-6.311
X7.4677Y-3.8449
X7.4697Y-3.9465
X7.4701Y-5.4453
X7.4705Y-5.352
X7.4815Y-6.2008
X7.6016Y-3.8449
X7.6035Y-3.9465
X7.6039Y-5.4453
X7.6043Y-5.352
X7.6154Y-6.2008
X8.2173Y-5.5606
X8.2177Y-5.4673
X8.2201Y-6.3102
X8.2213Y-4.063
X8.2232Y-3.965
X8.3512Y-5.5606
X8.3516Y-5.4673
X8.3539Y-6.3102
X8.3551Y-4.063
X8.3571Y-3.965
X8.9626Y-5.6705
X8.963Y-5.5772
X8.9693Y-4.1819
X8.9764Y-4.0799
X9.0965Y-5.6705
X9.0969Y-5.5772
X9.1031Y-4.1819
X9.1102Y-4.0799
T3
X9.1598Y-4.7295
X9.2622Y-4.7295
X9.3606Y-4.7295
X9.7806Y-5.1879
X9.7806Y-5.2879
X9.7806Y-5.3879
X9.7814Y-3.5629
X9.7814Y-3.6629
X9.7814Y-3.7629
X9.7814Y-3.8629
X9.7814Y-3.9629
X9.7814Y-4.0629
X9.7814Y-5.6308
X9.7814Y-5.7308
X9.7814Y-5.8308
X9.7814Y-5.9308
X9.7814Y-6.0308
X9.7826Y-4.3731
X9.7826Y-4.4731
X9.7826Y-4.5731
X9.7826Y-4.6731
X9.7826Y-4.7731
X9.7826Y-4.8731
T0
M30
