%TF.GenerationSoftware,KiCad,Pcbnew,7.0.2*%
%TF.CreationDate,2023-04-26T23:00:14+02:00*%
%TF.ProjectId,phoenix-no-controller,70686f65-6e69-4782-9d6e-6f2d636f6e74,v1.0.0*%
%TF.SameCoordinates,Original*%
%TF.FileFunction,Soldermask,Bot*%
%TF.FilePolarity,Negative*%
%FSLAX46Y46*%
G04 Gerber Fmt 4.6, Leading zero omitted, Abs format (unit mm)*
G04 Created by KiCad (PCBNEW 7.0.2) date 2023-04-26 23:00:14*
%MOMM*%
%LPD*%
G01*
G04 APERTURE LIST*
%ADD10C,1.701800*%
%ADD11C,3.000000*%
%ADD12C,3.987800*%
%ADD13R,2.550000X2.500000*%
%ADD14R,1.700000X1.700000*%
%ADD15O,1.700000X1.700000*%
%ADD16R,1.800000X1.500000*%
%ADD17R,1.524000X1.524000*%
G04 APERTURE END LIST*
D10*
%TO.C,S28*%
X230427500Y-114424810D03*
D11*
X231697500Y-111884810D03*
X232967500Y-109344810D03*
D12*
X235507500Y-114424810D03*
D11*
X238047500Y-109344810D03*
X239317500Y-111884810D03*
D10*
X240587500Y-114424810D03*
D13*
X228422500Y-111884810D03*
X241349500Y-109344810D03*
%TD*%
D10*
%TO.C,S21*%
X211427500Y-149524810D03*
D11*
X212697500Y-146984810D03*
X213967500Y-144444810D03*
D12*
X216507500Y-149524810D03*
D11*
X219047500Y-144444810D03*
X220317500Y-146984810D03*
D10*
X221587500Y-149524810D03*
D13*
X209422500Y-146984810D03*
X222349500Y-144444810D03*
%TD*%
D10*
%TO.C,S24*%
X211427500Y-92374810D03*
D11*
X212697500Y-89834810D03*
X213967500Y-87294810D03*
D12*
X216507500Y-92374810D03*
D11*
X219047500Y-87294810D03*
X220317500Y-89834810D03*
D10*
X221587500Y-92374810D03*
D13*
X209422500Y-89834810D03*
X222349500Y-87294810D03*
%TD*%
D10*
%TO.C,S11*%
X173427500Y-149524810D03*
D11*
X174697500Y-146984810D03*
X175967500Y-144444810D03*
D12*
X178507500Y-149524810D03*
D11*
X181047500Y-144444810D03*
X182317500Y-146984810D03*
D10*
X183587500Y-149524810D03*
D13*
X171422500Y-146984810D03*
X184349500Y-144444810D03*
%TD*%
D14*
%TO.C,*%
X248477500Y-111077500D03*
D15*
X248477500Y-113617500D03*
X248477500Y-116157500D03*
X248477500Y-118697500D03*
X248477500Y-121237500D03*
X248477500Y-123777500D03*
%TD*%
D16*
%TO.C,*%
X132670000Y-170270000D03*
%TD*%
D10*
%TO.C,S15*%
X192427500Y-165574810D03*
D11*
X193697500Y-163034810D03*
X194967500Y-160494810D03*
D12*
X197507500Y-165574810D03*
D11*
X200047500Y-160494810D03*
X201317500Y-163034810D03*
D10*
X202587500Y-165574810D03*
D13*
X190422500Y-163034810D03*
X203349500Y-160494810D03*
%TD*%
D10*
%TO.C,S12*%
X173427500Y-130474810D03*
D11*
X174697500Y-127934810D03*
X175967500Y-125394810D03*
D12*
X178507500Y-130474810D03*
D11*
X181047500Y-125394810D03*
X182317500Y-127934810D03*
D10*
X183587500Y-130474810D03*
D13*
X171422500Y-127934810D03*
X184349500Y-125394810D03*
%TD*%
D10*
%TO.C,S4*%
X135427500Y-102374810D03*
D11*
X136697500Y-99834810D03*
X137967500Y-97294810D03*
D12*
X140507500Y-102374810D03*
D11*
X143047500Y-97294810D03*
X144317500Y-99834810D03*
D10*
X145587500Y-102374810D03*
D13*
X133422500Y-99834810D03*
X146349500Y-97294810D03*
%TD*%
D10*
%TO.C,S6*%
X154427500Y-159524810D03*
D11*
X155697500Y-156984810D03*
X156967500Y-154444810D03*
D12*
X159507500Y-159524810D03*
D11*
X162047500Y-154444810D03*
X163317500Y-156984810D03*
D10*
X164587500Y-159524810D03*
D13*
X152422500Y-156984810D03*
X165349500Y-154444810D03*
%TD*%
D14*
%TO.C,*%
X248427500Y-131772500D03*
D15*
X248427500Y-134312500D03*
X248427500Y-136852500D03*
%TD*%
D10*
%TO.C,S10*%
X173427500Y-168574810D03*
D11*
X174697500Y-166034810D03*
X175967500Y-163494810D03*
D12*
X178507500Y-168574810D03*
D11*
X181047500Y-163494810D03*
X182317500Y-166034810D03*
D10*
X183587500Y-168574810D03*
D13*
X171422500Y-166034810D03*
X184349500Y-163494810D03*
%TD*%
D10*
%TO.C,S20*%
X211427500Y-168574810D03*
D11*
X212697500Y-166034810D03*
X213967500Y-163494810D03*
D12*
X216507500Y-168574810D03*
D11*
X219047500Y-163494810D03*
X220317500Y-166034810D03*
D10*
X221587500Y-168574810D03*
D13*
X209422500Y-166034810D03*
X222349500Y-163494810D03*
%TD*%
D10*
%TO.C,S27*%
X230427500Y-133474810D03*
D11*
X231697500Y-130934810D03*
X232967500Y-128394810D03*
D12*
X235507500Y-133474810D03*
D11*
X238047500Y-128394810D03*
X239317500Y-130934810D03*
D10*
X240587500Y-133474810D03*
D13*
X228422500Y-130934810D03*
X241349500Y-128394810D03*
%TD*%
D10*
%TO.C,S17*%
X192427500Y-127474810D03*
D11*
X193697500Y-124934810D03*
X194967500Y-122394810D03*
D12*
X197507500Y-127474810D03*
D11*
X200047500Y-122394810D03*
X201317500Y-124934810D03*
D10*
X202587500Y-127474810D03*
D13*
X190422500Y-124934810D03*
X203349500Y-122394810D03*
%TD*%
D10*
%TO.C,S29*%
X230427500Y-95374810D03*
D11*
X231697500Y-92834810D03*
X232967500Y-90294810D03*
D12*
X235507500Y-95374810D03*
D11*
X238047500Y-90294810D03*
X239317500Y-92834810D03*
D10*
X240587500Y-95374810D03*
D13*
X228422500Y-92834810D03*
X241349500Y-90294810D03*
%TD*%
D17*
%TO.C,*%
X237760000Y-120130000D03*
%TD*%
D10*
%TO.C,S3*%
X135427500Y-121424810D03*
D11*
X136697500Y-118884810D03*
X137967500Y-116344810D03*
D12*
X140507500Y-121424810D03*
D11*
X143047500Y-116344810D03*
X144317500Y-118884810D03*
D10*
X145587500Y-121424810D03*
D13*
X133422500Y-118884810D03*
X146349500Y-116344810D03*
%TD*%
D10*
%TO.C,S1*%
X135427500Y-159524810D03*
D11*
X136697500Y-156984810D03*
X137967500Y-154444810D03*
D12*
X140507500Y-159524810D03*
D11*
X143047500Y-154444810D03*
X144317500Y-156984810D03*
D10*
X145587500Y-159524810D03*
D13*
X133422500Y-156984810D03*
X146349500Y-154444810D03*
%TD*%
D10*
%TO.C,S13*%
X173427500Y-111424810D03*
D11*
X174697500Y-108884810D03*
X175967500Y-106344810D03*
D12*
X178507500Y-111424810D03*
D11*
X181047500Y-106344810D03*
X182317500Y-108884810D03*
D10*
X183587500Y-111424810D03*
D13*
X171422500Y-108884810D03*
X184349500Y-106344810D03*
%TD*%
D10*
%TO.C,S22*%
X211427500Y-130474810D03*
D11*
X212697500Y-127934810D03*
X213967500Y-125394810D03*
D12*
X216507500Y-130474810D03*
D11*
X219047500Y-125394810D03*
X220317500Y-127934810D03*
D10*
X221587500Y-130474810D03*
D13*
X209422500Y-127934810D03*
X222349500Y-125394810D03*
%TD*%
D10*
%TO.C,S7*%
X154427500Y-140474810D03*
D11*
X155697500Y-137934810D03*
X156967500Y-135394810D03*
D12*
X159507500Y-140474810D03*
D11*
X162047500Y-135394810D03*
X163317500Y-137934810D03*
D10*
X164587500Y-140474810D03*
D13*
X152422500Y-137934810D03*
X165349500Y-135394810D03*
%TD*%
D10*
%TO.C,S23*%
X211427500Y-111424810D03*
D11*
X212697500Y-108884810D03*
X213967500Y-106344810D03*
D12*
X216507500Y-111424810D03*
D11*
X219047500Y-106344810D03*
X220317500Y-108884810D03*
D10*
X221587500Y-111424810D03*
D13*
X209422500Y-108884810D03*
X222349500Y-106344810D03*
%TD*%
D17*
%TO.C,*%
X235260000Y-120130000D03*
%TD*%
D10*
%TO.C,S16*%
X192427500Y-146524810D03*
D11*
X193697500Y-143984810D03*
X194967500Y-141444810D03*
D12*
X197507500Y-146524810D03*
D11*
X200047500Y-141444810D03*
X201317500Y-143984810D03*
D10*
X202587500Y-146524810D03*
D13*
X190422500Y-143984810D03*
X203349500Y-141444810D03*
%TD*%
D10*
%TO.C,S19*%
X192427500Y-89374810D03*
D11*
X193697500Y-86834810D03*
X194967500Y-84294810D03*
D12*
X197507500Y-89374810D03*
D11*
X200047500Y-84294810D03*
X201317500Y-86834810D03*
D10*
X202587500Y-89374810D03*
D13*
X190422500Y-86834810D03*
X203349500Y-84294810D03*
%TD*%
D10*
%TO.C,S14*%
X173427500Y-92374810D03*
D11*
X174697500Y-89834810D03*
X175967500Y-87294810D03*
D12*
X178507500Y-92374810D03*
D11*
X181047500Y-87294810D03*
X182317500Y-89834810D03*
D10*
X183587500Y-92374810D03*
D13*
X171422500Y-89834810D03*
X184349500Y-87294810D03*
%TD*%
D17*
%TO.C,*%
X232660000Y-120130000D03*
%TD*%
D10*
%TO.C,S2*%
X135427500Y-140474810D03*
D11*
X136697500Y-137934810D03*
X137967500Y-135394810D03*
D12*
X140507500Y-140474810D03*
D11*
X143047500Y-135394810D03*
X144317500Y-137934810D03*
D10*
X145587500Y-140474810D03*
D13*
X133422500Y-137934810D03*
X146349500Y-135394810D03*
%TD*%
D10*
%TO.C,S8*%
X154427500Y-121424810D03*
D11*
X155697500Y-118884810D03*
X156967500Y-116344810D03*
D12*
X159507500Y-121424810D03*
D11*
X162047500Y-116344810D03*
X163317500Y-118884810D03*
D10*
X164587500Y-121424810D03*
D13*
X152422500Y-118884810D03*
X165349500Y-116344810D03*
%TD*%
D14*
%TO.C,*%
X248447500Y-90497500D03*
D15*
X248447500Y-93037500D03*
X248447500Y-95577500D03*
X248447500Y-98117500D03*
X248447500Y-100657500D03*
X248447500Y-103197500D03*
%TD*%
D10*
%TO.C,S26*%
X230427500Y-152524810D03*
D11*
X231697500Y-149984810D03*
X232967500Y-147444810D03*
D12*
X235507500Y-152524810D03*
D11*
X238047500Y-147444810D03*
X239317500Y-149984810D03*
D10*
X240587500Y-152524810D03*
D13*
X228422500Y-149984810D03*
X241349500Y-147444810D03*
%TD*%
D10*
%TO.C,S5*%
X154427500Y-178574810D03*
D11*
X155697500Y-176034810D03*
X156967500Y-173494810D03*
D12*
X159507500Y-178574810D03*
D11*
X162047500Y-173494810D03*
X163317500Y-176034810D03*
D10*
X164587500Y-178574810D03*
D13*
X152422500Y-176034810D03*
X165349500Y-173494810D03*
%TD*%
D14*
%TO.C,*%
X248447500Y-143022500D03*
D15*
X248447500Y-145562500D03*
X248447500Y-148102500D03*
X248447500Y-150642500D03*
X248447500Y-153182500D03*
%TD*%
D10*
%TO.C,S9*%
X154427500Y-102374810D03*
D11*
X155697500Y-99834810D03*
X156967500Y-97294810D03*
D12*
X159507500Y-102374810D03*
D11*
X162047500Y-97294810D03*
X163317500Y-99834810D03*
D10*
X164587500Y-102374810D03*
D13*
X152422500Y-99834810D03*
X165349500Y-97294810D03*
%TD*%
D10*
%TO.C,S18*%
X192427500Y-108424810D03*
D11*
X193697500Y-105884810D03*
X194967500Y-103344810D03*
D12*
X197507500Y-108424810D03*
D11*
X200047500Y-103344810D03*
X201317500Y-105884810D03*
D10*
X202587500Y-108424810D03*
D13*
X190422500Y-105884810D03*
X203349500Y-103344810D03*
%TD*%
D10*
%TO.C,S1*%
X135428000Y-178580000D03*
D11*
X136698000Y-176040000D03*
X137968000Y-173500000D03*
D12*
X140508000Y-178580000D03*
D11*
X143048000Y-173500000D03*
X144318000Y-176040000D03*
D10*
X145588000Y-178580000D03*
D13*
X133423000Y-176040000D03*
X146350000Y-173500000D03*
%TD*%
D16*
%TO.C,D25*%
X228000000Y-103630000D03*
X231400000Y-103630000D03*
%TD*%
%TO.C,D25*%
X189740000Y-138310000D03*
X193140000Y-138310000D03*
%TD*%
%TO.C,D25*%
X208820000Y-103200000D03*
X212220000Y-103200000D03*
%TD*%
%TO.C,D25*%
X152050000Y-151260000D03*
X155450000Y-151260000D03*
%TD*%
%TO.C,D25*%
X170820000Y-141230000D03*
X174220000Y-141230000D03*
%TD*%
%TO.C,D25*%
X189730000Y-100240000D03*
X193130000Y-100240000D03*
%TD*%
%TO.C,D25*%
X151710000Y-110730000D03*
X155110000Y-110730000D03*
%TD*%
%TO.C,D25*%
X227650000Y-144030000D03*
X231050000Y-144030000D03*
%TD*%
%TO.C,D25*%
X151970000Y-170310000D03*
X155370000Y-170310000D03*
%TD*%
%TO.C,D25*%
X208790000Y-160280000D03*
X212190000Y-160280000D03*
%TD*%
%TO.C,D25*%
X170880000Y-100710000D03*
X174280000Y-100710000D03*
%TD*%
%TO.C,D25*%
X171000000Y-160300000D03*
X174400000Y-160300000D03*
%TD*%
%TO.C,D25*%
X132960000Y-113220000D03*
X136360000Y-113220000D03*
%TD*%
%TO.C,D25*%
X227660000Y-141660000D03*
X231060000Y-141660000D03*
%TD*%
%TO.C,D25*%
X132670000Y-170270000D03*
X136070000Y-170270000D03*
%TD*%
%TO.C,D25*%
X227820000Y-106220000D03*
X231220000Y-106220000D03*
%TD*%
%TO.C,D25*%
X170830000Y-138860000D03*
X174230000Y-138860000D03*
%TD*%
%TO.C,D25*%
X170860000Y-103150000D03*
X174260000Y-103150000D03*
%TD*%
%TO.C,D25*%
X132980000Y-148670000D03*
X136380000Y-148670000D03*
%TD*%
%TO.C,D25*%
X133060000Y-110510000D03*
X136460000Y-110510000D03*
%TD*%
%TO.C,D25*%
X208870000Y-100710000D03*
X212270000Y-100710000D03*
%TD*%
%TO.C,D25*%
X208730000Y-138870000D03*
X212130000Y-138870000D03*
%TD*%
%TO.C,D25*%
X189750000Y-135940000D03*
X193150000Y-135940000D03*
%TD*%
%TO.C,D25*%
X152110000Y-148860000D03*
X155510000Y-148860000D03*
%TD*%
%TO.C,D25*%
X132940000Y-151470000D03*
X136340000Y-151470000D03*
%TD*%
%TO.C,D25*%
X151670000Y-113130000D03*
X155070000Y-113130000D03*
%TD*%
%TO.C,D25*%
X190030000Y-157500000D03*
X193430000Y-157500000D03*
%TD*%
%TO.C,D25*%
X189680000Y-97660000D03*
X193080000Y-97660000D03*
%TD*%
%TO.C,D25*%
X208720000Y-141240000D03*
X212120000Y-141240000D03*
%TD*%
M02*
